<?xml version="1.0" encoding="utf-8"?>
<!-- Generator: Adobe Illustrator 16.0.4, SVG Export Plug-In . SVG Version: 6.00 Build 0)  -->
<!DOCTYPE svg PUBLIC "-//W3C//DTD SVG 1.1//EN" "http://www.w3.org/Graphics/SVG/1.1/DTD/svg11.dtd">
<svg version="1.1" id="Layer_1" xmlns="http://www.w3.org/2000/svg" xmlns:xlink="http://www.w3.org/1999/xlink" x="0px" y="0px"
	 width="48px" height="48px" viewBox="-10 -10 48 48" enable-background="new -10 -10 48 48" xml:space="preserve">
<circle fill="#FFFFFF" cx="14" cy="14" r="24"/>
<circle fill="#7B8084" cx="14" cy="14" r="15.214"/>
<g>
	<g>
		<path fill="#FFFFFF" d="M21.741,10.981c-0.286-1.641-1.636-2.94-3.285-3.179c-1.852-0.265-3.5,0.764-4.179,2.313
			C14.221,10.241,14,10.652,14,10.652s-0.224-0.411-0.279-0.537c-0.677-1.549-2.326-2.578-4.18-2.313
			c-1.646,0.239-2.995,1.539-3.279,3.179c-0.229,1.321,0.204,2.552,1.022,3.411c0.178,0.216,0.449,0.519,0.649,0.744
			c1.071,1.228,3.388,3.46,4.873,4.795c0.282,0.249,1.194,1.02,1.194,1.02s0.909-0.771,1.193-1.021
			c1.485-1.336,3.802-3.567,4.877-4.795c0.195-0.228,0.467-0.528,0.646-0.744C21.537,13.534,21.966,12.302,21.741,10.981
			L21.741,10.981z"/>
	</g>
</g>
</svg>
