<?xml version="1.0" encoding="utf-8"?>
<!-- Generator: Adobe Illustrator 16.0.4, SVG Export Plug-In . SVG Version: 6.00 Build 0)  -->
<!DOCTYPE svg PUBLIC "-//W3C//DTD SVG 1.1//EN" "http://www.w3.org/Graphics/SVG/1.1/DTD/svg11.dtd">
<svg version="1.1" id="Layer_1" xmlns="http://www.w3.org/2000/svg" xmlns:xlink="http://www.w3.org/1999/xlink" x="0px" y="0px"
	 width="35px" height="35px" viewBox="0 0 35 35" enable-background="new 0 0 35 35" xml:space="preserve">
<g>
	<path d="M17.5,5C24.393,5,30,10.607,30,17.5S24.393,30,17.5,30S5,24.393,5,17.5S10.607,5,17.5,5 M17.5,0C7.835,0,0,7.835,0,17.5
		S7.835,35,17.5,35S35,27.165,35,17.5S27.165,0,17.5,0L17.5,0z"/>
</g>
<g>
	<polygon points="20,10 15,10 15,18.375 20,18.375 20,10 	"/>
</g>
<g>
	<polygon points="26,18 8.979,18 17.49,27 26,18 	"/>
</g>
</svg>
