<svg id="Layer_1" data-name="Layer 1" xmlns="http://www.w3.org/2000/svg" xmlns:xlink="http://www.w3.org/1999/xlink" width="12.5mm" height="12.5mm" viewBox="0 0 35.4 35.4"><defs><clipPath id="clip-path" transform="translate(0 0)"><rect width="35.4" height="35.38" style="fill:none"/></clipPath></defs><title>favorieten-step_mijn-favorieten</title><g style="clip-path:url(#clip-path)"><path d="M26.3,2.4A17.2,17.2,0,0,0,17.4,0,17.2,17.2,0,0,0,8.5,2.4,18.4,18.4,0,0,0,2.2,8.8,17.1,17.1,0,0,0,0,17.7a18.3,18.3,0,0,0,2.5,8.9A18.4,18.4,0,0,0,9.1,33,17.2,17.2,0,0,0,18,35.4,16.6,16.6,0,0,0,26.8,33a17.8,17.8,0,0,0,6.4-6.4,18.1,18.1,0,0,0,2.2-8.9,18.3,18.3,0,0,0-2.5-8.9,19.2,19.2,0,0,0-6.6-6.4M9.7,16.1a3.2,3.2,0,0,1-.5-1.3,2.8,2.8,0,0,1,.1-2A3.2,3.2,0,0,1,10.6,11a3.5,3.5,0,0,1,1.9-.6,3.9,3.9,0,0,1,1.7.4,4.5,4.5,0,0,1,1.3,1.1,2.9,2.9,0,0,0,2.2.9,2.8,2.8,0,0,0,2.2-.9,4.5,4.5,0,0,1,1.3-1.1,3.8,3.8,0,0,1,1.6-.4,3.9,3.9,0,0,1,2,.6,3.4,3.4,0,0,1,1.4,1.8,4.9,4.9,0,0,1,.2,2,2.3,2.3,0,0,1-.6,1.3L18,27Z" transform="translate(0 0)" style="fill:#576b80"/></g></svg>