<svg id="Layer_1" data-name="Layer 1" xmlns="http://www.w3.org/2000/svg" width="12.4mm" height="12.4mm" viewBox="0 0 35.2 35.2"><title>favorieten-step_bedankt</title><path d="M11.7,16.5a3.1,3.1,0,1,1,3.1-3.1,3.1,3.1,0,0,1-3.1,3.1m11.9,0a3.1,3.1,0,1,1,3.1-3.1,3.1,3.1,0,0,1-3.1,3.1m-6,11A10,10,0,0,1,12,25.8a10.2,10.2,0,0,1-3.6-4.6l-.3-.7h4v.3a6.4,6.4,0,0,0,5.4,3.1A6.2,6.2,0,0,0,23,20.8l.2-.3h3.9l-.2.7a10.9,10.9,0,0,1-3.6,4.6,10.3,10.3,0,0,1-5.7,1.7m0-23A13.1,13.1,0,1,0,30.7,17.6,13.1,13.1,0,0,0,17.6,4.5m0,30.7A17.6,17.6,0,1,1,35.2,17.6,17.6,17.6,0,0,1,17.6,35.2" transform="translate(0 0)" style="fill:#576b80"/></svg>