<svg id="Layer_1" data-name="Layer 1" xmlns="http://www.w3.org/2000/svg" xmlns:xlink="http://www.w3.org/1999/xlink" width="50" height="74.9" viewBox="0 0 50 74.9"><defs><linearGradient id="linear-gradient" x1="25" y1="71.25" x2="25" gradientUnits="userSpaceOnUse"><stop offset="0" stop-color="#fff" stop-opacity="0.05"/><stop offset="1" stop-color="#f4f5f5"/></linearGradient></defs><title>favorieten</title><path class="f-circle" d="M42.6,32.6V0H7.4V32.6A24.2,24.2,0,0,0,0,50.1a25,25,0,0,0,50,0,24.2,24.2,0,0,0-7.4-17.5" style="fill:#e21e26"/><path d="M38.5,42.3a15.8,15.8,0,0,1,2.3,7.9,16.9,16.9,0,0,1-2,8,15.6,15.6,0,0,1-5.7,5.7A15.3,15.3,0,0,1,25.2,66a15.6,15.6,0,0,1-7.9-2.1A16,16,0,0,1,9.1,50.2a16.6,16.6,0,0,1,2-7.9,16.7,16.7,0,0,1,5.7-5.8,15.3,15.3,0,0,1,7.9-2.1,15.6,15.6,0,0,1,7.9,2.1A17.2,17.2,0,0,1,38.5,42.3Z" style="fill:#fff"/><path class="f-heart" d="M25.2,58.6l7.1-9.7a7.3,7.3,0,0,0,.5-1.2,4,4,0,0,0-.2-1.8,2.8,2.8,0,0,0-1.3-1.6,3.7,3.7,0,0,0-1.7-.5,3.3,3.3,0,0,0-1.5.3,5.2,5.2,0,0,0-1.1,1,2.9,2.9,0,0,1-4,0,5.2,5.2,0,0,0-1.1-1,3.4,3.4,0,0,0-3.2.2,2.3,2.3,0,0,0-1.2,1.6,2.8,2.8,0,0,0-.1,1.8,3.3,3.3,0,0,0,.5,1.2Z" style="fill:#e21e26"/><path d="M11.8,35l-.2.2A20,20,0,1,0,45,50a20.5,20.5,0,0,0-6.8-15.1H38" style="fill:none"/><path d="M38,0V34.8h.2A20.5,20.5,0,0,1,45,50,20,20,0,1,1,11.6,35.2l.2-.2V0H10.6V34.5A21,21,0,0,0,3.8,50,21.2,21.2,0,1,0,39.2,34.2V0Z" style="fill:url(#linear-gradient)"/></svg>