<svg id="Layer_1" data-name="Layer 1" xmlns="http://www.w3.org/2000/svg" width="12.5mm" height="12.4mm" viewBox="0 0 35.5 35.2"><title>favorieten-step_gegevens</title><polygon points="17.1 14.9 14.3 12 10.2 16.2 17.1 23.2 35.5 4.4 31.4 0.3 17.1 14.9" style="fill:#576b80"/><path d="M28.6,17.6A11.7,11.7,0,0,1,17.1,29.4,11.6,11.6,0,0,1,5.7,17.6,11.5,11.5,0,0,1,17.1,5.9H20V0H17.1C7.7,0,0,7.9,0,17.6S7.7,35.2,17.1,35.2A17.4,17.4,0,0,0,34.3,17.6V14.7H28.6Z" transform="translate(0 0)" style="fill:#576b80"/></svg>