<svg id="Layer_1" data-name="Layer 1" xmlns="http://www.w3.org/2000/svg" xmlns:xlink="http://www.w3.org/1999/xlink" width="230.1" height="231.1" viewBox="0 0 230.1 231.1"><defs><linearGradient id="linear-gradient" x1="-29.71" y1="371.51" x2="-28.71" y2="371.51" gradientTransform="matrix(-152.92, 0, 0, 152.92, -4428.47, -56698.82)" gradientUnits="userSpaceOnUse"><stop offset="0" stop-color="#fff"/><stop offset="1"/></linearGradient><filter id="luminosity-noclip" x="-127.71" y="-130.18" width="485.53" height="485.46" filterUnits="userSpaceOnUse" color-interpolation-filters="sRGB"><feFlood flood-color="#fff" result="bg"/><feBlend in="SourceGraphic" in2="bg"/></filter><mask id="mask" x="-127.71" y="-130.18" width="485.53" height="485.46" maskUnits="userSpaceOnUse"><g style="filter:url(#luminosity-noclip)"><rect x="-57.1" y="-59.2" width="344.3" height="343.52" transform="translate(-45.7 104.8) rotate(-41.6)" style="fill:url(#linear-gradient)"/></g></mask></defs><title>header-werk</title><g style="mask:url(#mask)"><polyline points="0 0 0 230.8 230.1 231.1" style="fill:#576b80"/></g><path d="M146.1,202.7c2,2.1,2.5,2,3-.6s4.3-20.7,4.6-22.3l19.1-4c2.6-.5,2.7-1,.5-3.2s-2.3-2.3-5.3-1.7l-16.3,3.6-5.2-5.2,10-9.9c1.8-1.8,1.8-1.9-.3-4s-2.2-2-4-.2l-25,25c-1.8,1.8-1.8,1.9.3,4s2.2,2,4,.2L143,172.9l5.2,5.2c-.4,2.5-3.2,16-3.8,19.3s-.6,3.1,1.7,5.3m-29-28.9c2.1,2.1,2.5,1.9,3.1-.6s3.4-14.6,4-16.5c4.5,3.1,8.4,2.2,13.3-2.7,6.5-6.4,6-11.3-.8-18l-9-9c-2.1-2.1-2.1-2.1-4-.3l-25,25c-1.8,1.8-1.8,1.9.3,4s2.2,2.1,4,.3l9.7-9.7,6.8,6.8c-.9,3.5-3.4,13.4-3.9,15.5s-.8,2.9,1.5,5.2m9.6-41.5,6.4,6.5c4.1,4,4.3,6.5,0,10.8s-6.6,4.1-10.1.7l-7.1-7.2ZM102.8,102c-2.1-2-2.2-2-4-.2l-25,25c-1.8,1.8-1.8,1.9.3,4l14.1,14.1c2.4,2.3,2.4,2.3,4.2.6s1.7-1.8-.7-4.2l-12-11.9,9.7-9.7,10.4,10.5c2.4,2.3,2.5,2.3,4,.8s1.6-1.7-.8-4L92.6,116.5l8.8-8.8,11.4,11.5c2.4,2.3,2.5,2.3,4.2.6s1.7-1.8-.6-4.2ZM91.6,94.5c2.1-1.3,2.2-1.5.1-3.6s-2.2-2.1-4.4-.7-27.7,16.7-30,18.1l-1.7-1.7L75.1,78.1c1.6-2.1,1.6-2.2-.5-4.3s-2.1-2.1-4.3-.5L41.8,92.8l-1.7-1.7c1.5-2.3,17-28.3,18.1-30s1.4-2.2-.7-4.4-2.3-2-3.6.1S36.6,86.1,35.2,88.3s-1.3,2.3,1.3,4.9l2.4,2.4c2.6,2.6,2.7,2.7,4.9,1.2l23.8-16c-3.6,5.2-15.2,22.7-16,23.8s-1.3,2.3,1.2,4.9l2.4,2.4c2.6,2.6,2.7,2.6,4.9,1.3s29-17.1,31.5-18.7" style="fill:#fff"/></svg>