<svg id="Layer_1" data-name="Layer 1" xmlns="http://www.w3.org/2000/svg" xmlns:xlink="http://www.w3.org/1999/xlink" width="230.1" height="231.1" viewBox="0 0 230.1 231.1"><defs><linearGradient id="linear-gradient" x1="-29.7" y1="370.61" x2="-28.7" y2="370.61" gradientTransform="matrix(-152.92, 0, 0, 152.92, -4427.72, -56562.08)" gradientUnits="userSpaceOnUse"><stop offset="0" stop-color="#fff"/><stop offset="1"/></linearGradient><filter id="luminosity-noclip" x="-127.66" y="-130.13" width="485.43" height="485.36" filterUnits="userSpaceOnUse" color-interpolation-filters="sRGB"><feFlood flood-color="#fff" result="bg"/><feBlend in="SourceGraphic" in2="bg"/></filter><mask id="mask" x="-127.66" y="-130.13" width="485.43" height="485.36" maskUnits="userSpaceOnUse"><g style="filter:url(#luminosity-noclip)"><rect x="-57.1" y="-59.2" width="344.3" height="343.48" transform="translate(-45.7 104.5) rotate(-41.5)" style="fill:url(#linear-gradient)"/></g></mask></defs><title>header-thuis</title><g style="mask:url(#mask)"><polyline points="0 0 0 230.8 230.1 231.1" style="fill:#dcb853"/></g><path d="M134.3,191.8c7,7,11.9,6.3,17.1,1s5-9.8-.1-17.8c-3.2-5.1-3.2-6.8.1-10s5.3-3.2,8.7.2a38.1,38.1,0,0,1,5.7,7.3c1.5,2.4,1.6,2.5,3.7,1.3s2-1.4.5-3.8a54.4,54.4,0,0,0-6.1-7.7c-7.1-7-11.9-6.6-17-1.3s-4.8,8.9-.5,15.6,4.2,8.6.6,12.2-5.5,3.4-9-.1a36.6,36.6,0,0,1-6.2-7.9c-1.3-2.3-1.4-2.4-3.5-1.2s-2.1,1.4-.8,3.7a56.3,56.3,0,0,0,6.8,8.5M145,147.9c1.8-1.8,1.8-1.8-.3-3.9s-2.2-2.1-4-.3l-25,25c-1.8,1.8-1.8,1.9.3,4s2.2,2.1,4,.3Zm-49.7,4.9c8.3,8.3,13.5,7.1,24.9-4.3l12.7-12.7c1.8-1.8,1.8-1.8-.3-3.9s-2.2-2.1-4-.3L116,144.2c-8.7,8.6-11.6,10.7-17.2,5.1s-3.6-8.5,5-17.2l12.7-12.7c1.8-1.8,1.8-1.8-.3-3.9s-2.2-2.1-4-.3L99.5,127.8c-11.4,11.4-12.5,16.7-4.2,25m9-45.5c1.9-1.8,1.9-1.9-.2-4s-2.2-2.1-4-.3l-9.9,10L77.4,100.2l10-9.9c1.8-1.8,1.8-1.9-.3-4s-2.2-2.1-4-.2l-25,25c-1.8,1.8-1.8,1.9.3,3.9s2.1,2.1,4,.3l11.5-11.5,12.7,12.7L75.1,128.1c-1.8,1.8-1.8,1.8.3,3.9s2.1,2.1,3.9.3ZM77.2,80c1.7-1.7,1.7-1.9-.6-4.2L59.8,59.1c-2.3-2.4-2.4-2.4-4.1-.6s-1.8,1.8.6,4.1l6.2,6.2L39.2,92.2c-1.8,1.8-1.8,1.9.3,3.9s2.1,2.1,3.9.3L66.8,73.1l6.3,6.3c2.3,2.3,2.4,2.3,4.1.6" style="fill:#fff"/></svg>