<?xml version="1.0" encoding="utf-8"?>
<!-- Generator: Adobe Illustrator 21.0.0, SVG Export Plug-In . SVG Version: 6.00 Build 0)  -->
<svg version="1.1" id="Layer_1" xmlns="http://www.w3.org/2000/svg" xmlns:xlink="http://www.w3.org/1999/xlink" x="0px" y="0px"
	 width="26.6px" height="26.6px" viewBox="0 0 26.6 26.6" style="enable-background:new 0 0 26.6 26.6;" xml:space="preserve">
<circle style="fill:#FFFFFF;" cx="13.2" cy="13.2" r="9.6"/>
<title>modal-close</title>
<path style="fill:#EC1C24;" d="M24.7,6.6c2.4,4.1,2.4,9.2,0,13.3c-1.2,2-2.8,3.6-4.8,4.8c-4.1,2.4-9.2,2.4-13.3,0
	c-2-1.2-3.6-2.8-4.8-4.8c-2.4-4.1-2.4-9.2,0-13.3C3,4.6,4.6,3,6.6,1.8c4.1-2.4,9.2-2.4,13.3,0C21.9,3,23.5,4.6,24.7,6.6z M19.8,17.2
	c0-0.3-0.1-0.6-0.3-0.8l-3.1-3.1l3.1-3.1c0.2-0.2,0.3-0.5,0.3-0.8c0-0.3-0.1-0.6-0.3-0.8L17.9,7c-0.2-0.2-0.5-0.3-0.8-0.3
	c-0.3,0-0.6,0.1-0.8,0.3l-3.1,3.1L10.1,7C9.9,6.8,9.6,6.7,9.3,6.7C9,6.7,8.7,6.8,8.5,7L6.9,8.6C6.7,8.8,6.6,9.1,6.6,9.4
	c0,0.3,0.1,0.6,0.3,0.8l3.1,3.1l-3.1,3.1c-0.2,0.2-0.3,0.5-0.3,0.8c0,0.3,0.1,0.6,0.3,0.8l1.6,1.6c0.2,0.2,0.5,0.3,0.8,0.3
	c0.3,0,0.6-0.1,0.8-0.3l3.1-3.1l3.1,3.1c0.2,0.2,0.5,0.3,0.8,0.3c0.3,0,0.6-0.1,0.8-0.3l1.6-1.6C19.7,17.8,19.8,17.5,19.8,17.2
	L19.8,17.2z"/>
</svg>
