<svg id="Layer_1" data-name="Layer 1" xmlns="http://www.w3.org/2000/svg" width="26.5" height="26.5" viewBox="0 0 26.5 26.5"><title>modal-info</title><path d="M458.7,525.5a10.8,10.8,0,1,0-10.8-10.8,10.8,10.8,0,0,0,10.8,10.8" transform="translate(-445 -502.5)" style="fill:#fff"/><path d="M463.4,523.4a1.2,1.2,0,0,1-1.2,1.2h-7.3a1.2,1.2,0,0,1,0-2.4h1.2V515h-1.2a1.2,1.2,0,0,1,0-2.4h4.8a1.2,1.2,0,0,1,1.2,1.2v8.5h1.2a1.2,1.2,0,0,1,1.2,1.2M461,507.7a2.4,2.4,0,1,1-2.4-2.4,2.4,2.4,0,0,1,2.4,2.4m10.5,8.1A13.2,13.2,0,1,0,458.2,529a13.2,13.2,0,0,0,13.2-13.2" transform="translate(-445 -502.5)" style="fill:#ec1c24"/></svg>