<svg id="Layer_1" data-name="Layer 1" xmlns="http://www.w3.org/2000/svg" xmlns:xlink="http://www.w3.org/1999/xlink" width="97.2mm" height="20.5mm" viewBox="0 0 275.6 58"><defs><linearGradient id="linear-gradient" x1="-250.33" y1="218.04" x2="-249.33" y2="218.04" gradientTransform="matrix(112.14, 0, 0, -112.14, 28243.9, 24480.27)" gradientUnits="userSpaceOnUse"><stop offset="0" stop-color="#fff"/><stop offset="1"/></linearGradient><filter id="luminosity-noclip" x="0" y="0" width="275.57" height="58" filterUnits="userSpaceOnUse" color-interpolation-filters="sRGB"><feFlood flood-color="#fff" result="bg"/><feBlend in="SourceGraphic" in2="bg"/></filter><mask id="mask" x="0" y="0" width="275.57" height="58" maskUnits="userSpaceOnUse"><rect width="275.6" height="58" style="fill:url(#linear-gradient);filter:url(#luminosity-noclip)"/></mask><linearGradient id="linear-gradient-2" x1="4.49" y1="29" x2="270.05" y2="29" gradientUnits="userSpaceOnUse"><stop offset="0.75" stop-color="#fff"/><stop offset="1" stop-color="#fff" stop-opacity="0.5"/></linearGradient></defs><title>popup-proefplaatsing-werk</title><path d="M231.9,58H29A29,29,0,0,1,0,29H0A29,29,0,0,1,29,0H231.9a28.9,28.9,0,0,1,19.2,7.3L275.6,29,251.1,50.7A28.9,28.9,0,0,1,231.9,58" style="fill:#576b80"/><g style="mask:url(#mask)"><path d="M231.8,53.9H29.9A24.8,24.8,0,0,1,5,29H5A24.8,24.8,0,0,1,29.9,4.1H231.8a24.5,24.5,0,0,1,16.5,6.3l21,18.6-21,18.6A24.5,24.5,0,0,1,231.8,53.9Z" style="fill:none;stroke-width:1.0160000324249268px;stroke:url(#linear-gradient-2)"/></g><path d="M27.6,30.8V34c0,.7,0,.7-.7.7s-.8,0-.8-.7V24.9c0-.7,0-.7.8-.7h3.2c2.6,0,3.5.8,3.5,3.3s-.9,3.3-3.5,3.3ZM30,25.3H27.6v4.3H30c1.5,0,2-.3,2-2.1S31.5,25.3,30,25.3Z" style="fill:#fff"/><path d="M43,34l-2.1-3.5H38.4V34c0,.7,0,.7-.8.7s-.7,0-.7-.7V24.9c0-.7,0-.7.7-.7h3.3c2.5,0,3.5.8,3.5,3.1s-.6,2.7-2,3L44.7,34c.4.6.3.7-.4.7S43.4,34.6,43,34Zm-4.6-4.7H41c1.3,0,1.8-.5,1.8-2s-.5-2-2-2H38.4Z" style="fill:#fff"/><path d="M52,34.8c-3.1,0-4.1-1.2-4.1-5.4S48.9,24,52,24s4,1.2,4,5.4S55,34.8,52,34.8Zm0-9.5c-2.1,0-2.4,1-2.4,4.1s.3,4.1,2.4,4.1,2.4-.9,2.4-4.1S54,25.3,52,25.3Z" style="fill:#fff"/><path d="M64.2,34.7H60.5c-.8,0-.8,0-.8-.7V24.9c0-.7,0-.7.8-.7h3.4c2.5,0,3.3.8,3.3,2.6s-.4,2.2-1.7,2.5c1.6.2,2,1,2,2.6S66.7,34.7,64.2,34.7Zm-3-9.4v3.4h2.6c1.4,0,1.8-.5,1.8-1.7s-.4-1.7-1.8-1.7Zm2.9,4.6H61.2v3.6h2.9c1.4,0,1.8-.5,1.8-1.8S65.5,29.9,64.1,29.9Z" style="fill:#fff"/><path d="M76.6,24.2c.9,0,.9,0,.9.6s0,.7-.9.7H72.5v3.2h3.8c.8,0,.9,0,.9.6s-.1.6-.9.6H72.5v3.5h4.3c.9,0,.9,0,.9.6s0,.7-.9.7H71.7c-.8,0-.8,0-.8-.7V24.9c0-.7,0-.7.8-.7Z" style="fill:#fff"/><path d="M86.5,24.2c.9,0,.9,0,.9.6s0,.7-.9.7H82.3v3.2h3.9c.8,0,.8,0,.8.6s0,.6-.8.6H82.3v3.5h4.4c.9,0,.9,0,.9.6s0,.7-.9.7H81.5c-.7,0-.7,0-.7-.7V24.9c0-.7,0-.7.7-.7Z" style="fill:#fff"/><path d="M96.8,34l-2.1-3.5H92.2V34c0,.7,0,.7-.8.7s-.8,0-.8-.7V24.9c0-.7.1-.7.8-.7h3.3c2.5,0,3.5.8,3.5,3.1s-.6,2.7-2,3L98.5,34c.3.6.3.7-.5.7S97.2,34.6,96.8,34Zm-4.6-4.7h2.6c1.3,0,1.7-.5,1.7-2s-.5-2-1.9-2H92.2Z" style="fill:#fff"/><path d="M113.4,33.8c0,.7-1.5,1-3.1,1s-4-1.2-4-5.4,1-5.4,3.9-5.4a11.8,11.8,0,0,1,2.5.4c.7.2.7.3.5.9s-.2.6-.9.4a7.1,7.1,0,0,0-2-.4c-2,0-2.4,1-2.4,4.1s.3,4.2,2.4,4.2a3.2,3.2,0,0,0,1.7-.3V30.6c0-.6,0-.6.7-.6s.7,0,.7.6Z" style="fill:#fff"/><path d="M123,34l-2.1-3.5h-2.5V34c0,.7,0,.7-.8.7s-.8,0-.8-.7V24.9c0-.7.1-.7.8-.7h3.3c2.5,0,3.5.8,3.5,3.1s-.6,2.7-2,3l2.3,3.7c.3.6.3.7-.5.7S123.4,34.6,123,34Zm-4.6-4.7H121c1.3,0,1.7-.5,1.7-2s-.5-2-1.9-2h-2.4Z" style="fill:#fff"/><path d="M129.9,32s-.5,1.8-.5,2-.2.7-1,.7-.8-.1-.6-.7,2.2-8.5,2.3-9.2.2-.6,1.2-.6h1.3c.9,0,1,0,1.1.6l2.4,9.2c.1.6.1.7-.7.7s-.7,0-.9-.7-.5-2-.5-2Zm3.8-1.2-1.4-5.6h-.8l-1.4,5.6Z" style="fill:#fff"/><path d="M144.3,25.5H142V34c0,.7,0,.7-.8.7s-.7,0-.7-.7V25.5h-2.3c-.9,0-.9,0-.9-.7s0-.6.9-.6h6.1c.9,0,.9,0,.9.6S145.2,25.5,144.3,25.5Z" style="fill:#fff"/><path d="M149.7,34c0,.7,0,.7-.8.7s-.8,0-.8-.7V24.9c0-.7,0-.7.8-.7s.8,0,.8.7Z" style="fill:#fff"/><path d="M153.7,34.5c-.6-.2-.7-.2-.5-.8s.2-.6.8-.4a9.8,9.8,0,0,0,2.6.3c1.3,0,1.7-.6,1.7-1.6s-.3-1.7-2.4-2.2-2.7-1.1-2.7-2.9.8-2.9,3.3-2.9l2.6.3c.7.2.7.2.6.8s-.3.6-.9.4l-2.4-.2c-1.3,0-1.7.5-1.7,1.5s.3,1.5,1.8,1.8,3.3,1.1,3.3,3.3-.7,2.9-3.3,2.9A14.1,14.1,0,0,1,153.7,34.5Z" style="fill:#fff"/><path d="M170.2,34.8c-3.1,0-4.1-1.2-4.1-5.4s1-5.4,4.1-5.4,4,1.2,4,5.4S173.2,34.8,170.2,34.8Zm0-9.5c-2.1,0-2.4,1-2.4,4.1s.3,4.1,2.4,4.1,2.4-.9,2.4-4.1S172.3,25.3,170.2,25.3Z" style="fill:#fff"/><path d="M178.7,30.8V34c0,.7,0,.7-.8.7s-.8,0-.8-.7V24.9c0-.7.1-.7.8-.7h3.3c2.6,0,3.5.8,3.5,3.3s-.9,3.3-3.5,3.3Zm2.4-5.5h-2.4v4.3h2.4c1.5,0,1.9-.3,1.9-2.1S182.6,25.3,181.1,25.3Z" style="fill:#fff"/><path d="M192.5,30.8V34c0,.7,0,.7-.7.7s-.8,0-.8-.7V24.9c0-.7,0-.7.8-.7H195c2.6,0,3.5.8,3.5,3.3s-.9,3.3-3.5,3.3Zm2.4-5.5h-2.4v4.3h2.4c1.5,0,2-.3,2-2.1S196.4,25.3,194.9,25.3Z" style="fill:#fff"/><path d="M207.2,34c-.3-.5-1.7-2.7-2.1-3.5h-2.5V34c0,.7,0,.7-.8.7s-.8,0-.8-.7V24.9c0-.7,0-.7.8-.7h3.3c2.5,0,3.4.8,3.4,3.1s-.5,2.7-1.9,3l2.3,3.7c.3.6.3.7-.5.7S207.6,34.6,207.2,34Zm-4.6-4.7h2.6c1.3,0,1.7-.5,1.7-2s-.5-2-1.9-2h-2.4Z" style="fill:#fff"/><path d="M215.4,34.8c-3.1,0-4.1-1.2-4.1-5.4s1-5.4,4.1-5.4,4,1.2,4,5.4S218.4,34.8,215.4,34.8Zm0-9.5c-2.1,0-2.4,1-2.4,4.1s.3,4.1,2.4,4.1,2.4-.9,2.4-4.1S217.4,25.3,215.4,25.3Z" style="fill:#fff"/><path d="M228.1,24.2c.8,0,.9,0,.9.6s-.1.7-.9.7h-4.2v3.2h3.8c.9,0,.9,0,.9.6s0,.6-.9.6h-3.8v3.5h4.4c.8,0,.9,0,.9.6s-.1.7-.9.7h-5.2c-.7,0-.8,0-.8-.7V24.9c0-.7.1-.7.8-.7Z" style="fill:#fff"/><path d="M233,25.5v3.3h3.7c.8,0,.9,0,.9.6s-.1.7-.9.7H233V34c0,.7,0,.7-.8.7s-.7,0-.7-.7V24.9c0-.7,0-.7.7-.7H237c.9,0,.9,0,.9.6s0,.7-.9.7Z" style="fill:#fff"/></svg>