<?xml version="1.0" encoding="utf-8"?>
<!-- Generator: Adobe Illustrator 22.0.0, SVG Export Plug-In . SVG Version: 6.00 Build 0)  -->
<svg version="1.1" id="Layer_1" xmlns="http://www.w3.org/2000/svg" xmlns:xlink="http://www.w3.org/1999/xlink" x="0px" y="0px"
	 viewBox="0 0 16 16" style="enable-background:new 0 0 16 16;" xml:space="preserve">
<style type="text/css">
	.st0{fill:#231F20;}
</style>
<title>filter-search</title>
<path class="st0" d="M15.2,13.6l-3.1-3.1c0.8-1.1,1.1-2.4,1.1-3.7c0-0.9-0.2-1.7-0.6-2.5C12,2.8,10.7,1.6,9.2,0.9
	C8.4,0.6,7.5,0.4,6.7,0.4c-3.5,0-6.3,2.8-6.3,6.3v0.1c0,0.9,0.2,1.7,0.6,2.5c0.7,1.5,1.9,2.8,3.5,3.4c0.8,0.3,1.6,0.5,2.5,0.5
	c1.3,0,2.5-0.4,3.6-1.1l3.1,3c0.5,0.4,1.3,0.6,1.7,0.1C16.1,14.4,15.2,13.6,15.2,13.6z M7,10.9C6.9,10.9,6.9,10.9,7,10.9
	c-2.4,0-4.3-1.8-4.3-4.1c-0.1-2.2,1.7-4,3.9-4.1h0.1c2.3,0,4.2,1.8,4.2,4.1C10.9,9,9.2,10.9,7,10.9z"/>
</svg>
