<svg id="Layer_1" data-name="Layer 1" xmlns="http://www.w3.org/2000/svg" xmlns:xlink="http://www.w3.org/1999/xlink" width="86.1" height="45.4" viewBox="0 0 86.1 45.4"><defs><style>.cls-1{fill:url(#linear-gradient);filter:url(#luminosity-noclip);}.cls-2{mask:url(#mask);}.cls-3{fill:#dcb853;}.cls-4{fill:#1f1e20;}</style><linearGradient id="linear-gradient" x1="-1013.62" y1="1095.61" x2="-1012.62" y2="1095.61" gradientTransform="matrix(0, 49.85, 49.85, 0, -54664.3, 50531.54)" gradientUnits="userSpaceOnUse"><stop offset="0" stop-color="#fff"/><stop offset="1"/></linearGradient><filter id="luminosity-noclip" x="-171.87" y="-2.6" width="257.98" height="50.56" filterUnits="userSpaceOnUse" color-interpolation-filters="sRGB"><feFlood flood-color="#fff" result="bg"/><feBlend in="SourceGraphic" in2="bg"/></filter><mask id="mask" x="-171.87" y="-2.6" width="257.98" height="50.56" maskUnits="userSpaceOnUse"><rect class="cls-1" x="-171.9" y="-2.6" width="258" height="50.56"/></mask></defs><title>thuis-filter-dropdown</title><g class="cls-2"><rect class="cls-3" x="-10.3" y="22.2" width="70.5" height="1" transform="translate(-8.7 24.3) rotate(-45)"/></g><path class="cls-4" d="M67.1,22.7l-0.9-.8a1.5,1.5,0,0,0-1-.4,1.3,1.3,0,0,0-1,.4L61,25.1V17.2a1.5,1.5,0,0,0-1.5-1.4H58a1.4,1.4,0,0,0-1.4,1.4v7.9l-3.3-3.3a1.4,1.4,0,0,0-2,0l-0.8.8a1.4,1.4,0,0,0,0,2L58,31.9a1.4,1.4,0,0,0,1,.4,1.4,1.4,0,0,0,1-.4l7.1-7.3a1.3,1.3,0,0,0,.4-1,1.5,1.5,0,0,0-.4-1"/></svg>