<svg id="Layer_1" data-name="Layer 1" xmlns="http://www.w3.org/2000/svg" xmlns:xlink="http://www.w3.org/1999/xlink" width="86.1" height="45.4" viewBox="0 0 86.1 45.4"><defs><style>.cls-1{fill:url(#linear-gradient);filter:url(#luminosity-noclip);}.cls-2{mask:url(#mask);}.cls-3{fill:#dcb853;}</style><linearGradient id="linear-gradient" x1="-1013.62" y1="1095.61" x2="-1012.62" y2="1095.61" gradientTransform="matrix(0, 49.85, 49.85, 0, -54664.3, 50531.54)" gradientUnits="userSpaceOnUse"><stop offset="0" stop-color="#fff"/><stop offset="1"/></linearGradient><filter id="luminosity-noclip" x="-171.87" y="-2.6" width="257.98" height="50.56" filterUnits="userSpaceOnUse" color-interpolation-filters="sRGB"><feFlood flood-color="#fff" result="bg"/><feBlend in="SourceGraphic" in2="bg"/></filter><mask id="mask" x="-171.87" y="-2.6" width="257.98" height="50.56" maskUnits="userSpaceOnUse"><rect class="cls-1" x="-171.9" y="-2.6" width="258" height="50.56"/></mask></defs><title>filter-search-hover</title><g class="cls-2"><rect class="cls-3" x="-10.3" y="22.2" width="70.5" height="1" transform="translate(-8.7 24.3) rotate(-45)"/></g><path class="cls-3" d="M66.2,29.1L63,25.9a6.2,6.2,0,0,0,1.1-3.7,6.4,6.4,0,0,0-.6-2.5A6.5,6.5,0,0,0,60,16.3a6.4,6.4,0,0,0-2.5-.5,6.3,6.3,0,0,0-6.3,6.4,6.4,6.4,0,0,0,.6,2.5,6.5,6.5,0,0,0,3.5,3.4,6.4,6.4,0,0,0,2.5.5,6.2,6.2,0,0,0,3.6-1.1l3.2,3.1a1.2,1.2,0,0,0,2-.8,1.1,1.1,0,0,0-.4-0.8m-8.5-2.7a4.2,4.2,0,0,1-4.2-4.1,4,4,0,0,1,4-4.1,4.2,4.2,0,0,1,4.2,4.1,4,4,0,0,1-4,4.1"/></svg>