<svg xmlns="http://www.w3.org/2000/svg" viewBox="0 0 30 22.03"><defs><style>.cls-1{fill:#fff;}</style></defs><title>tick</title><g id="Layer_2" data-name="Layer 2"><g id="Layer_1-2" data-name="Layer 1"><path class="cls-1" d="M0,12.24a5,5,0,0,1,.58-.84,1.42,1.42,0,0,1,1.81,0,2.59,2.59,0,0,1,.35.31L9.2,18.14c.09.09.15.18.29.35a3.44,3.44,0,0,1,.26-.36L27.29.59a1.54,1.54,0,0,1,1.6-.53,1.48,1.48,0,0,1,.78,2.36,4,4,0,0,1-.27.31L10.69,21.43a1.52,1.52,0,0,1-1.95.4,2,2,0,0,1-.45-.36C5.71,18.89,3.13,16.32.57,13.73a4.58,4.58,0,0,1-.57-.9Z"/></g></g></svg>