<?xml version="1.0" encoding="utf-8"?>
<!-- Generator: Adobe Illustrator 18.0.0, SVG Export Plug-In . SVG Version: 6.00 Build 0)  -->
<!DOCTYPE svg PUBLIC "-//W3C//DTD SVG 1.1//EN" "http://www.w3.org/Graphics/SVG/1.1/DTD/svg11.dtd">
<svg version="1.1" id="Layer_1" xmlns="http://www.w3.org/2000/svg" xmlns:xlink="http://www.w3.org/1999/xlink" x="0px" y="0px"
	 width="20.7px" height="20.7px" viewBox="0 0 20.7 20.7" enable-background="new 0 0 20.7 20.7" xml:space="preserve">
<g id="Page-1">
	<g id="Icons-AV" transform="translate(-169.000000, -170.000000)">
		<g id="volume-off" transform="translate(169.000000, 170.000000)">
			<path id="Shape" fill="#5D5D5D" d="M15.5,10.3c0-2.1-1.2-3.8-2.9-4.6v2.5l2.9,2.9V10.3L15.5,10.3z M18.3,10.3c0,1-0.2,2.1-0.6,3
				l1.7,1.7c0.8-1.4,1.2-3.1,1.2-4.8c0-4.9-3.5-9.1-8.1-10.1v2.4C15.9,3.6,18.3,6.6,18.3,10.3L18.3,10.3z M1.4-0.1l-1.5,1.5l5.4,5.4
				h-5.4v6.9h4.6l5.8,5.8v-7.7l4.9,4.9c-0.8,0.6-1.6,1-2.6,1.4v2.4c1.6-0.3,3-1,4.3-2.1l2.3,2.3l1.5-1.5L10.3,8.9L1.4-0.1L1.4-0.1z
				 M10.3,1.1L7.9,3.5l2.4,2.4V1.1L10.3,1.1z"/>
		</g>
	</g>
</g>
</svg>
