<?xml version="1.0" encoding="utf-8"?>
<!-- Generator: Adobe Illustrator 18.0.0, SVG Export Plug-In . SVG Version: 6.00 Build 0)  -->
<!DOCTYPE svg PUBLIC "-//W3C//DTD SVG 1.1//EN" "http://www.w3.org/Graphics/SVG/1.1/DTD/svg11.dtd">
<svg version="1.1" id="Layer_1" xmlns="http://www.w3.org/2000/svg" xmlns:xlink="http://www.w3.org/1999/xlink" x="0px" y="0px"
	 width="20.7px" height="20.7px" viewBox="0 0 20.7 20.7" enable-background="new 0 0 20.7 20.7" xml:space="preserve">
<g id="Page-1_1_">
	<g id="Icons-AV_1_" transform="translate(-211.000000, -170.000000)">
		<g id="volume-up" transform="translate(211.000000, 170.000000)">
			<path id="Shape_1_" fill="#5D5D5D" d="M0,6.9v6.9h4.6l5.7,5.7V1.2L4.5,6.9H0L0,6.9z M15.4,10.3c0-2.1-1.1-3.8-2.9-4.6v9.2
				C14.3,14.1,15.4,12.4,15.4,10.3L15.4,10.3z M12.6,0.2v2.4c3.3,1,5.7,4,5.7,7.7S15.9,17,12.6,18v2.4c4.6-1,8-5.2,8-10.1
				S17.2,1.3,12.6,0.2L12.6,0.2z"/>
		</g>
	</g>
</g>
</svg>
