<svg preserveAspectRatio="none" id="Layer_1" data-name="Layer 1" xmlns="http://www.w3.org/2000/svg"  viewBox="0 0 359.9 88.5"><defs><style>.cls-1{fill:#dcb853;}.cls-2{fill:#fff;}</style></defs><title>voordelen-thuis-bottom</title><path class="cls-1" d="M373.5,569.1a3,3,0,0,0,2.2-.1l154.1-44.1a37.4,37.4,0,0,1,18.6,0L702.6,569a3.9,3.9,0,0,0,2.5-.1,3,3,0,0,0,.5-2.2V493.5h-333v73.1A3.9,3.9,0,0,0,373.5,569.1Z" transform="translate(-360 -493.5)"/><path class="cls-1" d="M709.7,566.6c0,2.5-.7,4.3-2.1,5.4s-5.9.8-6.1,0.8L547.4,528.7a33,33,0,0,0-16.4,0L376.9,572.8a9.6,9.6,0,0,1-2.6.4,5.1,5.1,0,0,1-3.1-1c-2.4-1.8-2.4-5.4-2.4-5.6V493.5H366v73.1c0,0.5.1,5.2,3.5,7.7,1.5,1.1,4,2.2,8.1,1l154.1-44.1a30.9,30.9,0,0,1,14.9,0l154.2,44.1c0.5,0.1,5,1.3,8.4-1.2,1.5-1.1,3.2-3.3,3.2-7.5V493.5h-2.7v73.1Z" transform="translate(-360 -493.5)"/><path class="cls-1" d="M713.7,566.6c0,4.8-2,7.3-3.7,8.6-3.9,2.9-9,1.6-9.6,1.4L546.3,532.5c-6.9-2-14.1,0-14.2,0L378,576.7a13.5,13.5,0,0,1-3.7.6,9,9,0,0,1-5.5-1.8c-3.9-2.9-4-8.2-4-8.8V493.5H360v73.1s0,19.8,19.1,14.4l141.8-40.2s19.1-5.4,38.2,0l141.8,40.2s19.1,5.4,19.1-14.4V493.5h-6.2v73.1Z" transform="translate(-360 -493.5)"/><path class="cls-2" d="M712.4,566.6c0,4.2-1.7,6.4-3.2,7.5-3.4,2.6-7.9,1.4-8.4,1.2L546.6,531.2a30.9,30.9,0,0,0-14.9,0L377.6,575.4c-4.1,1.2-6.6.1-8.1-1-3.4-2.6-3.5-7.2-3.5-7.7V493.5h-1.3v73.1c0,0.6.1,5.9,4,8.8a9,9,0,0,0,5.5,1.8,13.5,13.5,0,0,0,3.7-.6l154.1-44.1c0.1,0,7.3-2,14.2,0l154.2,44.1c0.6,0.2,5.7,1.5,9.6-1.4,1.7-1.3,3.7-3.8,3.7-8.6V493.5h-1.3v73.1Z" transform="translate(-360 -493.5)"/><path class="cls-2" d="M371.1,572.3a5.1,5.1,0,0,0,3.1,1,9.6,9.6,0,0,0,2.6-.4L531,528.7a33,33,0,0,1,16.4,0l154.2,44.1c0.2,0,3.7,1,6.1-.8s2.1-2.9,2.1-5.4V493.5h-4v73.1a3,3,0,0,1-.5,2.2,3.9,3.9,0,0,1-2.5.1L548.5,524.8a37.4,37.4,0,0,0-18.6,0L375.8,569a3,3,0,0,1-2.2.1,3.9,3.9,0,0,1-.8-2.4V493.5h-4v73.1C368.7,566.8,368.7,570.5,371.1,572.3Z" transform="translate(-360 -493.5)"/></svg>