<svg preserveAspectRatio="none" id="Layer_1" data-name="Layer 1" xmlns="http://www.w3.org/2000/svg" viewBox="0 0 359.9 22.9"><defs><style>.cls-1{fill:#dcb853;}.cls-2{fill:#fff;}</style></defs><title>voordelen-thuis-top</title><path class="cls-1" d="M91.5,95.1c0-9.2,7.5-12.5,12.5-12.5H428c9.2,0,12.5,7.5,12.5,12.5v1.5h6.2V93.5s0-19.8-19.8-19.8H106.7s-19.8,0-19.8,19.8v3.1h4.7V95.1Z" transform="translate(-86.9 -73.7)"/><path class="cls-1" d="M428,84h-324c-4.5,0-11.2,3-11.2,11.2v1.5h2.7V95.1c0-6.6,5.3-8.5,8.5-8.5H428c6.6,0,8.5,5.3,8.5,8.5v1.5h2.7V95.1C439.2,90.6,436.2,84,428,84Z" transform="translate(-86.9 -73.7)"/><path class="cls-1" d="M428,90.6h-324c-1.4,0-4.5.5-4.5,4.5v1.5h333V95.1A4.2,4.2,0,0,0,428,90.6Z" transform="translate(-86.9 -73.7)"/><path class="cls-2" d="M428,82.6h-324c-5,0-12.5,3.3-12.5,12.5v1.5h1.3V95.1c0-8.2,6.7-11.2,11.2-11.2H428c8.2,0,11.2,6.7,11.2,11.2v1.5h1.3V95.1C440.6,90.1,437.2,82.6,428,82.6Z" transform="translate(-86.9 -73.7)"/><path class="cls-2" d="M428,86.6H104c-3.2,0-8.5,1.9-8.5,8.5v1.5h4V95.1c0-4,3.2-4.5,4.5-4.5H428a4.2,4.2,0,0,1,4.5,4.5v1.5h4V95.1C436.5,92,434.7,86.6,428,86.6Z" transform="translate(-86.9 -73.7)"/></svg>