<?xml version="1.0" encoding="utf-8"?>
<!-- Generator: Adobe Illustrator 16.0.4, SVG Export Plug-In . SVG Version: 6.00 Build 0)  -->
<!DOCTYPE svg PUBLIC "-//W3C//DTD SVG 1.1//EN" "http://www.w3.org/Graphics/SVG/1.1/DTD/svg11.dtd">
<svg version="1.1" id="Layer_1" xmlns="http://www.w3.org/2000/svg" xmlns:xlink="http://www.w3.org/1999/xlink" x="0px" y="0px"
	 width="27.999px" height="28px" viewBox="0 0 27.999 28" enable-background="new 0 0 27.999 28" xml:space="preserve">
<circle fill="#FFFFFF" cx="14" cy="14" r="14"/>
<circle fill="#7B8084" cx="14" cy="14" r="8.875"/>
<g>
	<g>
		<path fill="#FFFFFF" d="M18.515,12.239c-0.167-0.957-0.954-1.715-1.916-1.854c-1.08-0.155-2.042,0.445-2.438,1.349
			C14.129,11.807,14,12.047,14,12.047s-0.131-0.24-0.163-0.313c-0.395-0.904-1.357-1.504-2.438-1.349
			c-0.96,0.139-1.747,0.897-1.913,1.854c-0.134,0.771,0.119,1.489,0.596,1.99c0.104,0.126,0.262,0.302,0.379,0.434
			c0.625,0.716,1.976,2.018,2.842,2.797C13.468,17.605,14,18.054,14,18.054s0.53-0.448,0.696-0.595
			c0.866-0.779,2.218-2.081,2.844-2.797c0.115-0.132,0.273-0.308,0.378-0.434C18.396,13.728,18.647,13.01,18.515,12.239
			L18.515,12.239z M18.515,12.239"/>
	</g>
</g>
</svg>
