<svg id="Layer_1" data-name="Layer 1" xmlns="http://www.w3.org/2000/svg" xmlns:xlink="http://www.w3.org/1999/xlink" width="97.2mm" height="20.5mm" viewBox="0 0 275.6 58"><defs><linearGradient id="linear-gradient" x1="-287.25" y1="325.62" x2="-286.25" y2="325.62" gradientTransform="matrix(112.14, 0, 0, -112.14, 32383.77, 36543.83)" gradientUnits="userSpaceOnUse"><stop offset="0" stop-color="#fff"/><stop offset="1"/></linearGradient><filter id="luminosity-noclip" x="0" y="0" width="275.57" height="58" filterUnits="userSpaceOnUse" color-interpolation-filters="sRGB"><feFlood flood-color="#fff" result="bg"/><feBlend in="SourceGraphic" in2="bg"/></filter><mask id="mask" x="0" y="0" width="275.57" height="58" maskUnits="userSpaceOnUse"><rect width="275.6" height="58" style="fill:url(#linear-gradient);filter:url(#luminosity-noclip)"/></mask><linearGradient id="linear-gradient-2" x1="4.49" y1="29" x2="270.05" y2="29" gradientUnits="userSpaceOnUse"><stop offset="0.75" stop-color="#fff"/><stop offset="1" stop-color="#fff" stop-opacity="0.5"/></linearGradient></defs><title>popup-proefplaatsing-thuis</title><path d="M231.9,58H29A29,29,0,0,1,0,29H0A29,29,0,0,1,29,0H231.9a28.9,28.9,0,0,1,19.2,7.3L275.6,29,251.1,50.7A28.9,28.9,0,0,1,231.9,58" style="fill:#c8af5e"/><g style="mask:url(#mask)"><path d="M231.8,53.9H29.9A24.8,24.8,0,0,1,5,29H5A24.8,24.8,0,0,1,29.9,4.1H231.8a24.5,24.5,0,0,1,16.5,6.3l21,18.6-21,18.6A24.5,24.5,0,0,1,231.8,53.9Z" style="fill:none;stroke-width:1.0160000324249268px;stroke:url(#linear-gradient-2)"/></g><path d="M61.6,22.8V26c0,.7,0,.7-.7.7s-.8,0-.8-.7V16.9c0-.7,0-.7.8-.7h3.2c2.6,0,3.5.8,3.5,3.3s-.9,3.3-3.5,3.3ZM64,17.3H61.6v4.3H64c1.5,0,2-.3,2-2.1S65.5,17.3,64,17.3Z" style="fill:#fff"/><path d="M77,26l-2.1-3.5H72.4V26c0,.7,0,.7-.8.7s-.7,0-.7-.7V16.9c0-.7,0-.7.7-.7h3.3c2.5,0,3.5.8,3.5,3.1s-.6,2.7-2,3L78.7,26c.4.6.3.7-.4.7S77.4,26.6,77,26Zm-4.6-4.7H75c1.3,0,1.8-.5,1.8-2s-.5-2-2-2H72.4Z" style="fill:#fff"/><path d="M86,26.8c-3.1,0-4.1-1.2-4.1-5.4S82.9,16,86,16s4,1.2,4,5.4S89,26.8,86,26.8Zm0-9.5c-2.1,0-2.4,1-2.4,4.1s.3,4.1,2.4,4.1,2.4-.9,2.4-4.1S88,17.3,86,17.3Z" style="fill:#fff"/><path d="M98.2,26.7H94.5c-.8,0-.8,0-.8-.7V16.9c0-.7,0-.7.8-.7h3.4c2.5,0,3.3.8,3.3,2.6s-.4,2.2-1.7,2.5c1.6.2,2,1,2,2.6S100.7,26.7,98.2,26.7Zm-3-9.4v3.4h2.6c1.4,0,1.8-.5,1.8-1.7s-.4-1.7-1.8-1.7Zm2.9,4.6H95.2v3.6h2.9c1.4,0,1.8-.5,1.8-1.8S99.5,21.9,98.1,21.9Z" style="fill:#fff"/><path d="M110.6,16.2c.9,0,.9,0,.9.6s0,.7-.9.7h-4.1v3.2h3.8c.8,0,.9,0,.9.6s-.1.6-.9.6h-3.8v3.5h4.3c.9,0,.9,0,.9.6s0,.7-.9.7h-5.1c-.8,0-.8,0-.8-.7V16.9c0-.7,0-.7.8-.7Z" style="fill:#fff"/><path d="M120.5,16.2c.9,0,.9,0,.9.6s0,.7-.9.7h-4.2v3.2h3.9c.8,0,.8,0,.8.6s0,.6-.8.6h-3.9v3.5h4.4c.9,0,.9,0,.9.6s0,.7-.9.7h-5.2c-.7,0-.7,0-.7-.7V16.9c0-.7,0-.7.7-.7Z" style="fill:#fff"/><path d="M130.8,26l-2.1-3.5h-2.5V26c0,.7,0,.7-.8.7s-.8,0-.8-.7V16.9c0-.7.1-.7.8-.7h3.3c2.5,0,3.5.8,3.5,3.1s-.6,2.7-2,3l2.3,3.7c.3.6.3.7-.5.7S131.2,26.6,130.8,26Zm-4.6-4.7h2.6c1.3,0,1.7-.5,1.7-2s-.5-2-1.9-2h-2.4Z" style="fill:#fff"/><path d="M147.4,25.8c0,.7-1.5,1-3.1,1s-4-1.2-4-5.4,1-5.4,3.9-5.4a11.8,11.8,0,0,1,2.5.4c.7.2.7.3.5.9s-.2.6-.9.4a7.1,7.1,0,0,0-2-.4c-2,0-2.4,1-2.4,4.1s.3,4.2,2.4,4.2a3.2,3.2,0,0,0,1.7-.3V22.6c0-.6,0-.6.7-.6s.7,0,.7.6Z" style="fill:#fff"/><path d="M157,26l-2.1-3.5h-2.5V26c0,.7,0,.7-.8.7s-.8,0-.8-.7V16.9c0-.7.1-.7.8-.7h3.3c2.5,0,3.5.8,3.5,3.1s-.6,2.7-2,3l2.3,3.7c.3.6.3.7-.5.7S157.4,26.6,157,26Zm-4.6-4.7H155c1.3,0,1.7-.5,1.7-2s-.5-2-1.9-2h-2.4Z" style="fill:#fff"/><path d="M163.9,24s-.5,1.8-.5,2-.2.7-1,.7-.8-.1-.6-.7,2.2-8.5,2.3-9.2.2-.6,1.2-.6h1.3c.9,0,1,0,1.1.6l2.4,9.2c.1.6.1.7-.7.7s-.7,0-.9-.7-.5-2-.5-2Zm3.8-1.2-1.4-5.6h-.8l-1.4,5.6Z" style="fill:#fff"/><path d="M178.3,17.5H176V26c0,.7,0,.7-.8.7s-.7,0-.7-.7V17.5h-2.3c-.9,0-.9,0-.9-.7s0-.6.9-.6h6.1c.9,0,.9,0,.9.6S179.2,17.5,178.3,17.5Z" style="fill:#fff"/><path d="M183.7,26c0,.7,0,.7-.8.7s-.8,0-.8-.7V16.9c0-.7,0-.7.8-.7s.8,0,.8.7Z" style="fill:#fff"/><path d="M187.7,26.5c-.6-.2-.7-.2-.5-.8s.2-.6.8-.4a9.8,9.8,0,0,0,2.6.3c1.3,0,1.7-.6,1.7-1.6s-.3-1.7-2.4-2.2-2.7-1.1-2.7-2.9.8-2.9,3.3-2.9l2.6.3c.7.2.7.2.6.8s-.3.6-.9.4l-2.4-.2c-1.3,0-1.7.5-1.7,1.5s.3,1.5,1.8,1.8,3.3,1.1,3.3,3.3-.7,2.9-3.3,2.9A14.1,14.1,0,0,1,187.7,26.5Z" style="fill:#fff"/><path d="M42.4,40.4c.8,0,.9,0,.8.6s0,.7-.8.7H37c-.8,0-.8,0-.8-.7s0-.5.5-.9c3.1-2.4,4.5-3.9,4.5-5.7s-.6-2.1-2.1-2.1l-2.2.3c-.7.2-.8.2-.9-.4s-.2-.6.5-.8a9.5,9.5,0,0,1,2.6-.4c2.4,0,3.7.7,3.7,3.3s-1.5,3.8-4.5,6.1Z" style="fill:#fff"/><path d="M62.1,41c0,.7,0,.7-.7.7s-.8,0-.8-.7V33.6l-3.2,5c-.3.6-.3.6-.9.6s-.5,0-.9-.6l-3.1-5V41c0,.7,0,.7-.8.7s-.7,0-.7-.7V31.9c0-.7,0-.7.7-.7s.9,0,1.3.6l3.5,5.8c.2-.2,3.3-5.2,3.6-5.8s.4-.6,1.3-.6.7,0,.7.7Z" style="fill:#fff"/><path d="M67.6,39s-.5,1.8-.5,2-.2.7-.9.7-.8-.1-.7-.7l2.4-9.2c.1-.6.2-.6,1.1-.6h1.4c.9,0,.9,0,1.1.6s2.2,8.5,2.3,9.2.1.7-.6.7-.8,0-1-.7-.5-2-.5-2Zm3.9-1.2-1.4-5.6h-.8l-1.4,5.6Z" style="fill:#fff"/><path d="M78.9,39s-.4,1.8-.5,2-.2.7-.9.7-.8-.1-.6-.7,2.1-8.5,2.3-9.2.2-.6,1.1-.6h1.4c.9,0,.9,0,1.1.6L85.2,41c.1.6.1.7-.7.7s-.8,0-.9-.7-.6-2-.6-2Zm3.9-1.2-1.4-5.6h-.8l-1.4,5.6Z" style="fill:#fff"/><path d="M97.8,41c0,.7,0,.7-.8.7s-.8,0-1.3-.8l-5.6-7.6V41c0,.7,0,.7-.8.7s-.8,0-.8-.7V31.9c0-.7.1-.7.8-.7s.9,0,1.4.8l5.6,7.5V31.9c0-.7,0-.7.7-.7s.8,0,.8.7Z" style="fill:#fff"/><path d="M105.2,41.7h-2.8c-.8,0-.8,0-.8-.7V31.9c0-.7,0-.7.8-.7h2.8c3,0,4.1,1.1,4.1,5.2S108.2,41.7,105.2,41.7Zm-2-9.2v7.9h2c2.1,0,2.4-.8,2.4-4s-.4-3.9-2.4-3.9Z" style="fill:#fff"/><path d="M118.7,31.2c.8,0,.8,0,.8.6s0,.7-.8.7h-4.2v3.2h3.8c.9,0,.9,0,.9.6s0,.6-.9.6h-3.8v3.5h4.4c.8,0,.8,0,.8.6s0,.7-.8.7h-5.2c-.8,0-.8,0-.8-.7V31.9c0-.7,0-.7.8-.7Z" style="fill:#fff"/><path d="M132.1,41c0,.7-.1.7-.8.7s-.8,0-1.4-.8l-5.5-7.6V41c0,.7-.1.7-.8.7s-.8,0-.8-.7V31.9c0-.7,0-.7.8-.7s.8,0,1.4.8l5.5,7.5V31.9c0-.7,0-.7.8-.7s.8,0,.8.7Z" style="fill:#fff"/><path d="M144.3,41.8c-3,0-4-1.2-4-5.4s1-5.4,4-5.4,4.1,1.2,4.1,5.4S147.4,41.8,144.3,41.8Zm0-9.5c-2,0-2.4,1-2.4,4.1s.4,4.1,2.4,4.1,2.4-.9,2.4-4.1S146.4,32.3,144.3,32.3Z" style="fill:#fff"/><path d="M153.6,37.8V41c0,.7,0,.7-.8.7s-.7,0-.7-.7V31.9c0-.7,0-.7.7-.7h3.3c2.6,0,3.5.8,3.5,3.3s-.9,3.3-3.5,3.3Zm2.4-5.5h-2.4v4.3H156c1.5,0,2-.3,2-2.1S157.5,32.3,156,32.3Z" style="fill:#fff"/><path d="M169,37.8V41c0,.7-.1.7-.8.7s-.8,0-.8-.7V31.9c0-.7,0-.7.8-.7h3.3c2.5,0,3.4.8,3.4,3.3s-.9,3.3-3.4,3.3Zm2.3-5.5H169v4.3h2.3c1.5,0,2-.3,2-2.1S172.8,32.3,171.3,32.3Z" style="fill:#fff"/><path d="M184.4,41l-2.2-3.5h-2.5V41c0,.7,0,.7-.7.7s-.8,0-.8-.7V31.9c0-.7,0-.7.8-.7h3.3c2.4,0,3.4.8,3.4,3.1s-.6,2.7-1.9,3L186,41c.4.6.3.7-.4.7S184.7,41.6,184.4,41Zm-4.7-4.7h2.7c1.2,0,1.7-.5,1.7-2s-.5-2-2-2h-2.4Z" style="fill:#fff"/><path d="M193.3,41.8c-3.1,0-4.1-1.2-4.1-5.4s1-5.4,4.1-5.4,4,1.2,4,5.4S196.3,41.8,193.3,41.8Zm0-9.5c-2.1,0-2.4,1-2.4,4.1s.3,4.1,2.4,4.1,2.4-.9,2.4-4.1S195.4,32.3,193.3,32.3Z" style="fill:#fff"/><path d="M206.7,31.2c.9,0,.9,0,.9.6s0,.7-.9.7h-4.1v3.2h3.8c.8,0,.9,0,.9.6s-.1.6-.9.6h-3.8v3.5h4.3c.9,0,.9,0,.9.6s0,.7-.9.7h-5.1c-.8,0-.8,0-.8-.7V31.9c0-.7,0-.7.8-.7Z" style="fill:#fff"/><path d="M212.4,32.5v3.3h3.7c.9,0,.9,0,.9.6s0,.7-.9.7h-3.7V41c0,.7,0,.7-.7.7s-.8,0-.8-.7V31.9c0-.7,0-.7.8-.7h4.8c.8,0,.8,0,.8.6s0,.7-.8.7Z" style="fill:#fff"/></svg>