<svg id="Layer_1" data-name="Layer 1" xmlns="http://www.w3.org/2000/svg" width="10.6" height="10.6" viewBox="0 0 10.6 10.6"><title>decline</title><path d="M633.6,993.1a.9.9,0,0,1-.3.6l-1.2,1.2a.6.6,0,0,1-.6.3.9.9,0,0,1-.6-.3l-2.6-2.6-2.6,2.6a.9.9,0,0,1-.6.3.9.9,0,0,1-.7-.3l-1.2-1.2a1.4,1.4,0,0,1-.2-.6,1.1,1.1,0,0,1,.2-.6l2.7-2.6-2.7-2.7a.8.8,0,0,1-.2-.6,1.4,1.4,0,0,1,.2-.6l1.2-1.2a.8.8,0,0,1,.7-.2.7.7,0,0,1,.6.2l2.6,2.6,2.6-2.6a.7.7,0,0,1,.6-.2c.3,0,.5,0,.6.2l1.2,1.2a.9.9,0,0,1,.3.6.6.6,0,0,1-.3.6l-2.6,2.7,2.6,2.6A.7.7,0,0,1,633.6,993.1Z" transform="translate(-623 -984.6)"/></svg>