<svg xmlns="http://www.w3.org/2000/svg" viewBox="0 0 140.38 100"><title>euro</title><g id="Layer_2" data-name="Layer 2"><g id="Layer_1-2" data-name="Layer 1"><path d="M70.22,0h59.15c6.89,0,11,4.15,11,11.08V36c0,2.52-.66,3.24-3.13,3.44a10.46,10.46,0,0,0,.12,20.88c2.28.18,3,1,3,3.28q0,12.87,0,25.73c0,6.43-4.26,10.68-10.7,10.68q-59.49,0-119,0C4.27,100,0,95.7,0,89.28Q0,76.41,0,63.55c0-2.31.71-3.06,3-3.25a10.46,10.46,0,0,0-.11-20.89C.76,39.26,0,38.44,0,36.19Q0,23.4,0,10.61C0,4.29,4.32,0,10.66,0ZM35.81,95.08h93.68c4.08,0,6-1.89,6-6q0-11.33,0-22.66V65c-8.43-2.64-12.64-7.51-12.87-14.85a14.47,14.47,0,0,1,2.46-8.6,15.59,15.59,0,0,1,10.33-6.77c0-.47.07-.84.07-1.21q0-11.46,0-22.93c0-3.8-2-5.73-5.82-5.73H37.37c-.49,0-1,0-1.56.07,0,4.29,0,8.43,0,12.57a2.43,2.43,0,1,1-4.82,0C31,14,31,10.4,31,6.82V4.92H10.82c-4,0-5.92,1.91-5.92,5.9q0,11.26,0,22.52c0,.49,0,1,.07,1.45a15.46,15.46,0,0,1,12.81,14.7C18,56.72,13.64,62.11,5,65c0,.34-.08.7-.08,1.07,0,7.78,0,15.57,0,23.35,0,3.71,2,5.66,5.74,5.66q9.44,0,18.88,0c.44,0,.89,0,1.45-.09V93.36c0-3.68,0-7.37,0-11a2.46,2.46,0,0,1,2.86-2.61,2.55,2.55,0,0,1,1.95,2.7C35.82,86.55,35.81,90.69,35.81,95.08Z"/><path d="M73.53,30.11H84.7c.52,0,1,0,1.54,0a2.48,2.48,0,0,1,2.55,2.42,2.44,2.44,0,0,1-2.57,2.39C82,35,77.74,35,73.5,35H71.88l-.17,3.18h1.82c4.19,0,8.39,0,12.58,0,1.83,0,3,1,3,2.43S87.89,43,86.08,43c-4.23,0-8.47,0-13,0,.27.59.44,1,.67,1.47a14.94,14.94,0,0,0,22.62,4.12c.35-.3.69-.63,1-.92a2.41,2.41,0,1,1,3.29,3.53,18.76,18.76,0,0,1-9.57,5.19,19.62,19.62,0,0,1-23-12.66c-.08-.22-.18-.42-.27-.63-3.3-.37-4.24-.94-4.25-2.53s.91-2.18,3.28-2.59V35c-.4,0-.81-.06-1.22-.11a2.34,2.34,0,0,1-2.21-2.42c0-1.18.84-2.64,3.91-2.36.56,0,1-.95,1.82-2.51C75.27,16.09,91,13.55,100.3,22.56c1.64,1.6,1.39,3.66-.54,4.36A2.67,2.67,0,0,1,96.88,26a14.93,14.93,0,0,0-11.4-4C80.6,22.31,75.28,25.81,73.53,30.11Z"/><path d="M82.21,81.07H55.93c-1.82,0-2.83-.83-2.88-2.32a2.33,2.33,0,0,1,2.54-2.5c2.42,0,4.85,0,7.27,0H108a13.47,13.47,0,0,1,1.68,0,2.44,2.44,0,0,1,2.17,2.34A2.5,2.5,0,0,1,109.74,81a11.23,11.23,0,0,1-1.54,0Z"/><path d="M82.21,68.48H55.93c-1.82,0-2.83-.84-2.88-2.32a2.33,2.33,0,0,1,2.54-2.51c2.42,0,4.85,0,7.27,0H108c.56,0,1.12,0,1.68,0A2.45,2.45,0,0,1,111.85,66a2.5,2.5,0,0,1-2.11,2.42,11.23,11.23,0,0,1-1.54,0Z"/><path d="M35.81,63.29c0,2.47,0,4.93,0,7.4a2.43,2.43,0,1,1-4.82,0q0-7.39,0-14.81a2.52,2.52,0,0,1,2.49-2.76c1.43,0,2.32,1,2.33,2.73C35.82,58.35,35.81,60.82,35.81,63.29Z"/><path d="M35.81,36.74c0,2.42,0,4.84,0,7.26,0,1.68-1,2.85-2.4,2.85S31,45.7,31,44c0-4.89,0-9.77,0-14.66,0-1.7,1-2.82,2.42-2.83s2.39,1.09,2.4,2.82C35.82,31.8,35.81,34.27,35.81,36.74Z"/></g></g></svg>