<svg xmlns="http://www.w3.org/2000/svg" viewBox="0 0 50 50"><defs><style>.cls-1{fill:#fff;}.cls-2{fill:#e20b19;}</style></defs><title>fav1</title><g id="Layer_2" data-name="Layer 2"><g id="Layer_1-2" data-name="Layer 1"><circle class="cls-1" cx="25" cy="25" r="25"/><circle class="cls-2" cx="25" cy="25" r="15.85"/><path class="cls-1" d="M33.06,21.49a4.09,4.09,0,0,0-7.77-.91c-.06.13-.29.56-.29.56s-.23-.43-.29-.56A4.09,4.09,0,1,0,18,25l.68.77c1.12,1.28,3.53,3.61,5.08,5,.29.26,1.24,1.06,1.24,1.06s.95-.8,1.24-1.06c1.55-1.39,4-3.72,5.08-5L32,25a4.1,4.1,0,0,0,1.06-3.55Z"/></g></g></svg>