<svg xmlns="http://www.w3.org/2000/svg" fill="#263749" viewBox="0 0 91.01 100"><title>lock</title><g id="Layer_2" data-name="Layer 2"><g id="Layer_1-2" data-name="Layer 1"><path d="M18.31,41c0-4.63,0-8.84,0-13C18.49,12.2,30.18.11,45.32,0,60.62-.11,72.54,12.07,72.7,28c0,4.08,0,8.16,0,12.69,1.67.1,3.11.2,4.55.27,7.85.38,13.5,5.82,13.62,13.62.17,10.62.19,21.25,0,31.87a13.27,13.27,0,0,1-13.31,13.4q-32.08.24-64.18,0C5.86,99.81.26,94,.13,86.4q-.27-15.93,0-31.86C.26,47,5.83,41.45,13.37,41,14.85,40.93,16.33,41,18.31,41Zm27.12,8.84c-10,0-20,0-30,0-5.08,0-6.45,1.4-6.48,6.49q-.06,14.09,0,28.18c0,5.12,1.4,6.55,6.41,6.56q30.24.06,60.47,0c4.74,0,6.22-1.51,6.25-6.26q.08-14.31,0-28.64c0-4.94-1.49-6.32-6.63-6.33C65.43,49.81,55.43,49.84,45.43,49.84Zm18.42-9c0-5,.1-9.58,0-14.11A18.36,18.36,0,0,0,47.93,8.94c-9-1.12-17.84,4.14-19.8,13C26.8,28,27.24,34.45,26.88,40.8Z"/></g></g></svg>