<svg xmlns="http://www.w3.org/2000/svg" viewBox="0 0 76.93 100"><defs><style>.cls-1{fill:#2a374a;}</style></defs><title>lock1</title><g id="Layer_2" data-name="Layer 2"><g id="Layer_1-2" data-name="Layer 1"><path class="cls-1" d="M76.92,39.45c0-.77-.18-1-1-1-3.2,0-6.4,0-9.6,0-.8,0-1-.21-1-1,.07-1.24,0-2.48,0-3.72-.09-3.92.22-7.84-.45-11.74C62.49,8,48.47-2,34.41.33A27.06,27.06,0,0,0,11.56,27.15c0,3.36,0,6.73,0,10.09,0,1-.16,1.29-1.21,1.26-3-.08-6.08,0-9.12,0-1,0-1.25.21-1.25,1.22Q.06,69.22,0,98.76c0,1,.21,1.24,1.23,1.24q18.62-.06,37.22,0t37.35,0c.73,0,1.13,0,1.13-1Q76.87,69.23,76.92,39.45ZM19.25,26.9a19.22,19.22,0,0,1,38.13-3.4,45.06,45.06,0,0,1,.3,7.79c0,2-.07,4,0,6,0,1.05-.31,1.21-1.26,1.21-6,0-12,0-18,0s-12.09,0-18.13,0c-.81,0-1.09-.15-1.08-1C19.28,33.94,19.23,30.42,19.25,26.9Zm50,64.18c0,1-.24,1.23-1.24,1.23q-29.53,0-59.08,0c-1,0-1.23-.24-1.23-1.23q.06-21.85,0-43.71c0-1,.24-1.24,1.24-1.23,9.88,0,19.77,0,29.66,0s19.61,0,29.42,0c1,0,1.23.23,1.23,1.23Q69.18,69.22,69.24,91.08Z"/></g></g></svg>