<svg xmlns="http://www.w3.org/2000/svg" viewBox="0 0 99.11 100"><defs><style>.cls-1{fill:#fff;}</style></defs><title>PDF1</title><g id="Layer_2" data-name="Layer 2"><g id="Layer_1-2" data-name="Layer 1"><path d="M20.29,100H96.11a3,3,0,0,0,3-3V20.77L77.47,0H20.29a3,3,0,0,0-3,3V46.18h3.63V6.64a3,3,0,0,1,3-3H76L95.47,22.32v71a3,3,0,0,1-3,3H23.92a3,3,0,0,1-3-3V85.45H17.29V97A3,3,0,0,0,20.29,100Z"/><polygon points="74.01 25.46 97.3 25.33 97.28 21.7 77.65 1.82 74.01 1.82 74.01 25.46"/><path d="M3,44.36H78.09a3,3,0,0,1,3,3V84.27a3,3,0,0,1-3,3H3a3,3,0,0,1-3-3V47.36A3,3,0,0,1,3,44.36Z"/><path class="cls-1" d="M19.24,68.42v7.81H16V56.1h6.84a7.37,7.37,0,0,1,5.23,1.65,6,6,0,0,1,1.75,4.54A5.81,5.81,0,0,1,28,66.78a7.46,7.46,0,0,1-5.19,1.64Zm7.27-6.13a3.41,3.41,0,0,0-1-2.61,4.37,4.37,0,0,0-3.06-.9H19.24v7h3.25C25.17,65.76,26.51,64.61,26.51,62.29Z"/><path class="cls-1" d="M48.7,71.45A8.6,8.6,0,0,1,45.08,75a12,12,0,0,1-5.69,1.26H32.66V56.1h6.73a12.13,12.13,0,0,1,5.69,1.24,8.59,8.59,0,0,1,3.62,3.49,12,12,0,0,1,0,10.62Zm-4,0a7,7,0,0,0,1.94-5.27,7,7,0,0,0-1.94-5.28A7.67,7.67,0,0,0,39.13,59H35.91V73.29h3.22A7.67,7.67,0,0,0,44.69,71.41Z"/><path class="cls-1" d="M65.1,56.1v2.62H56.47V65h7.12v2.51H56.47v8.75H53.22V56.1Z"/></g></g></svg>