<svg xmlns="http://www.w3.org/2000/svg" viewBox="0 0 145.44 100"><title>ticket</title><g id="Layer_2" data-name="Layer 2"><g id="Layer_1-2" data-name="Layer 1"><rect x="39.28" y="3.61" width="4.25" height="2.12"/><path d="M43.52,90.25H39.28V86h4.24Zm0-8.45H39.28V77.58h4.24Zm0-8.45H39.28V69.12h4.24Zm0-8.45H39.28V60.67h4.24Zm0-8.45H39.28V52.22h4.24Zm0-8.46H39.28V43.77h4.24Zm0-8.45H39.28V35.31h4.24Zm0-8.45H39.28V26.86h4.24Zm0-8.45H39.28V18.41h4.24Zm0-8.46H39.28V10h4.24Z"/><rect x="39.28" y="94.48" width="4.25" height="2.12"/><path d="M145.44,1.05V36.21a1,1,0,0,1-1.16,1,14.17,14.17,0,0,0-1.6-.1h-.41a1,1,0,0,1-1.08-1V5.3a1,1,0,0,0-1.05-1H6.35a2.1,2.1,0,0,0-2.1,2.1v29.8a1.05,1.05,0,0,1-1.14,1c-.32,0-.65,0-1,0s-.66,0-1,0a1,1,0,0,1-1.13-1V2.1A2.1,2.1,0,0,1,2.1,0H144.39A1,1,0,0,1,145.44,1.05Z"/><path d="M145.44,63.62V99a1,1,0,0,1-1.05,1H1.05a1,1,0,0,1-1-1V63.74a13.48,13.48,0,0,0,2.12.17,13.6,13.6,0,0,0,2.13-.17v31a1,1,0,0,0,1,1H140.14a1,1,0,0,0,1.05-1V63.83a14.56,14.56,0,0,0,1.49.08A13.33,13.33,0,0,0,145.44,63.62Z"/><path d="M100,76.65c-6.09,0-11-6-11-13.38s5-13.38,11-13.38,11,6,11,13.38S106.09,76.65,100,76.65Zm0-22.51c-3.75,0-6.79,4.1-6.79,9.13s3,9.13,6.79,9.13,6.79-4.1,6.79-9.13S103.75,54.14,100,54.14Z"/><path d="M69.85,49.89c-6.09,0-11-6-11-13.37s4.95-13.38,11-13.38,11,6,11,13.38S75.94,49.89,69.85,49.89Zm0-22.5c-3.74,0-6.79,4.09-6.79,9.13s3,9.13,6.79,9.13,6.8-4.1,6.8-9.13S73.6,27.39,69.85,27.39Z"/><rect x="54.99" y="47.77" width="61.57" height="4.25" transform="translate(-5.61 88.58) rotate(-53.13)"/><path d="M141.19,37.24a12.17,12.17,0,0,1,1.49-.09,13.33,13.33,0,0,1,2.76.29V33.13a16.85,16.85,0,0,0-2.76-.22c-.51,0-1,0-1.49.06a17.62,17.62,0,0,0,0,35.12c.49,0,1,.06,1.49.06a18,18,0,0,0,2.76-.21V63.62a13.33,13.33,0,0,1-2.76.29,14.56,14.56,0,0,1-1.49-.08,13.38,13.38,0,0,1,0-26.59Z"/><path d="M4.25,33a16.69,16.69,0,0,0-2.13-.13A16.64,16.64,0,0,0,0,33v4.28a13.48,13.48,0,0,1,2.12-.17,13.6,13.6,0,0,1,2.13.17,13.38,13.38,0,0,1,0,26.42,13.6,13.6,0,0,1-2.13.17A13.48,13.48,0,0,1,0,63.74V68a18.88,18.88,0,0,0,4.25,0,17.62,17.62,0,0,0,0-35Z"/></g></g></svg>