<svg xmlns="http://www.w3.org/2000/svg" viewBox="0 0 100 100"><defs><style>.cls-1{fill:#98ccfd;}.cls-2{fill:#4788c7;}.cls-3{fill:#fff;}</style></defs><title>tick</title><g id="Layer_2" data-name="Layer 2"><g id="Layer_1-2" data-name="Layer 1"><path class="cls-1" d="M50,98.68A48.68,48.68,0,1,1,98.68,50,48.74,48.74,0,0,1,50,98.68Z"/><path class="cls-2" d="M50,2.63A47.37,47.37,0,1,1,2.63,50,47.42,47.42,0,0,1,50,2.63M50,0a50,50,0,1,0,50,50A50,50,0,0,0,50,0Z"/><path class="cls-3" d="M39.54,71.11,21.36,52.93,27,47.35,39.54,59.94,71.36,28.12,77,33.7Z"/></g></g></svg>