<svg xmlns="http://www.w3.org/2000/svg" fill="#2a374a" viewBox="0 0 120.21 100"><defs><style>.cls-1{fill:#263749;}</style></defs><title>user3</title><g id="Layer_2" data-name="Layer 2"><g id="Layer_1-2" data-name="Layer 1"><path class="cls-1" d="M45.11,60.06c6.67,0,13.34-.09,20,0,14.19.23,24.79,10.93,25,25.16,0,2.67-.06,5.34,0,8,.12,3.57-.84,6.65-4.9,6.71C80.89,100,80,96.74,80.13,93c.09-2.84.12-5.68,0-8.51A14.74,14.74,0,0,0,65.62,70.14q-20.51-.3-41,0C16.42,70.27,10.38,76.69,10.1,85c-.1,3.17,0,6.34,0,9.51C10,97.83,8.36,100,5,100,1.81,99.94.12,97.86.1,94.75c0-4.5-.35-9.07.31-13.48,1.83-12.35,12.08-21,24.69-21.19C31.77,60,38.44,60.06,45.11,60.06Z"/><path class="cls-1" d="M44.79,0A25,25,0,1,0,70.13,24.82,25,25,0,0,0,44.79,0ZM45,40A15,15,0,1,1,60.11,25.22,15.08,15.08,0,0,1,45,40Z"/><path class="cls-1" d="M100.18,25.26a25,25,0,0,1-16.51,23.3c-3.22,1.12-6.51,1.54-8.06-2.3s1-5.74,4.25-7.08c6.86-2.83,10.5-7.82,10.25-14.35-.25-6.84-3.7-11.55-10.17-13.92-3.33-1.22-5.86-3.15-4.36-7s4.75-3.51,8-2.39A25,25,0,0,1,100.18,25.26Z"/><path class="cls-1" d="M120.17,88.65c0,2.16.11,4.34,0,6.49-.2,2.87-1.84,4.74-4.71,4.85-3.15.13-5-1.77-5.18-4.86s0-6.33-.09-9.49c-.14-7-3.35-12.06-10-14.6-3.28-1.24-6-3-4.62-6.89,1.49-4.15,4.91-3.73,8.34-2.47C114.62,65.61,120.19,74.8,120.17,88.65Z"/></g></g></svg>