<svg xmlns="http://www.w3.org/2000/svg" fill="#2a374a" viewBox="0 0 114.24 100"><title>user4</title><g id="Layer_2" data-name="Layer 2"><g id="Layer_1-2" data-name="Layer 1"><path d="M0,74.75c.29-.91.51-1.86.87-2.74a10.1,10.1,0,0,1,4.58-5.13,73.6,73.6,0,0,1,29.11-9.12A77.23,77.23,0,0,1,72,62.93a85.11,85.11,0,0,1,8.11,3.91,10.1,10.1,0,0,1,5.52,9.3c.08,6.65,0,13.3,0,20A3.57,3.57,0,0,1,81.77,100q-38.92,0-77.84,0A4,4,0,0,1,0,97.29Zm78.53,18c0-5.68,0-11.25,0-16.83a3.17,3.17,0,0,0-1.81-2.87c-1.34-.71-2.67-1.46-4-2.1a69.69,69.69,0,0,0-35.36-6.31,67.93,67.93,0,0,0-27.81,8.1,4.12,4.12,0,0,0-2.36,4c.06,5,0,10,0,15,0,.32,0,.64.05,1Z"/><path d="M114.24,97.29c-.87,2-2.41,2.75-4.6,2.71-5.17-.1-10.33,0-15.5,0H92.88v-7.1h14.17c0-.47,0-.83,0-1.19,0-5,0-10,0-15a4.05,4.05,0,0,0-2.33-4,73.4,73.4,0,0,0-13.66-5.66A3.07,3.07,0,0,1,89.61,66c-2.34-3.51-5-5.27-8.86-6.89a14.61,14.61,0,0,1-2.85-1.58c1.51.17,3,.3,4.54.51a75.61,75.61,0,0,1,25.49,8.31,11.07,11.07,0,0,1,6.17,8.09.91.91,0,0,0,.14.3Z"/><path d="M17.85,25A25,25,0,1,1,42.79,50,25,25,0,0,1,17.85,25Zm25,17.87A17.85,17.85,0,1,0,25,25,17.89,17.89,0,0,0,42.87,42.84Z"/><path d="M64.51,48.82c1.64-2,3.23-3.86,4.86-5.73a1.15,1.15,0,0,1,.84-.32A17.8,17.8,0,0,0,88.94,28.35C91.12,17.66,82.62,7.14,71.72,7.21a3.7,3.7,0,0,1-3.5-1.73,46.84,46.84,0,0,0-3.76-4.22C71.58-1.61,83.22.19,90.59,9a25,25,0,0,1,1.26,30.34C85.58,48.22,73.71,52.3,64.51,48.82Z"/></g></g></svg>