<svg xmlns="http://www.w3.org/2000/svg" fill="#2a374a" viewBox="0 0 90.19 100"><defs><style>.cls-1{fill:#263749;}</style></defs><title>user2</title><g id="Layer_2" data-name="Layer 2"><g id="Layer_1-2" data-name="Layer 1"><path class="cls-1" d="M65.55,60.1A24.92,24.92,0,0,1,90.13,84.69c.09,3.33.07,6.67,0,10-.06,3.11-1.66,5.21-4.79,5.3-3.41.09-5.1-2.08-5.17-5.42s.08-6.68-.07-10c-.37-8-6.44-14.28-14.42-14.41h-41c-8.2.12-14.27,6.52-14.56,14.8-.12,3.33.07,6.67-.08,10C9.89,98.05,8.15,100,5,100A4.52,4.52,0,0,1,.16,95.31C0,90.49-.26,85.56.52,80.85,2.53,68.62,12.61,60.29,25,60.08Z"/><path class="cls-1" d="M45.47,0A25,25,0,1,0,70.12,25,25.06,25.06,0,0,0,45.47,0ZM45,40A15,15,0,1,1,60.1,25.21,15.11,15.11,0,0,1,45,40Z"/></g></g></svg>