<svg xmlns="http://www.w3.org/2000/svg" fill="#2a374a" viewBox="0 0 101.04 100"><defs><style>.cls-1{fill:#2b384b;}</style></defs><title>user1</title><g id="Layer_2" data-name="Layer 2"><g id="Layer_1-2" data-name="Layer 1"><path class="cls-1" d="M86,63.6C64.84,52.79,42.93,52,20.8,60.52,3.81,67.07.05,73.24,0,91.46c0,6.59,2.69,8.66,8.93,8.53,13.71-.28,27.43-.09,41.13-.09,14.17,0,28.34,0,42.51,0,3.44,0,6.28-.65,7.32-4.45C103.51,82.18,98.52,70,86,63.6Zm8.8,28.18C94.3,95.54,92,94.55,90,94.57c-13.49.06-27,0-40.48,0-12.82,0-25.65-.13-38.45.08-4.1.08-5.4-.74-5.87-5.33C4,77.41,9.75,70.67,19.84,66.43c20.77-8.72,41.52-8.76,62,.88C93.38,72.74,96.55,79.44,94.82,91.78Z"/><path class="cls-1" d="M49.92,0a25.42,25.42,0,0,0-25,24.88,25.12,25.12,0,0,0,50.23.38A25.34,25.34,0,0,0,49.92,0Zm-.21,44.78A19.94,19.94,0,0,1,30.1,24.89a20.1,20.1,0,0,1,20-19.58c11,0,20.3,9.42,19.92,20.27A19.86,19.86,0,0,1,49.71,44.78Z"/></g></g></svg>