<svg xmlns="http://www.w3.org/2000/svg" viewBox="0 0 136.14 103"><defs><style>.cls-1,.cls-2{fill:none;stroke:#263749;stroke-miterlimit:10;stroke-width:3px;}.cls-2{stroke-linecap:round;}</style></defs><title>voucher</title><g id="Layer_2" data-name="Layer 2"><g id="Layer_1-2" data-name="Layer 1"><path class="cls-1" d="M92.93,43.29a23,23,0,1,0-.75,24.9"/><line class="cls-2" x1="40.02" y1="48.34" x2="62.88" y2="48.34"/><line class="cls-2" x1="40.02" y1="61.13" x2="62.88" y2="61.13"/><path class="cls-1" d="M114.64,52.36a20,20,0,0,0,20,20V95a6.47,6.47,0,0,1-6.47,6.47H8A6.47,6.47,0,0,1,1.5,95V72.36a20,20,0,0,0,0-40V8A6.47,6.47,0,0,1,8,1.5h120.2A6.47,6.47,0,0,1,134.64,8V32.36A20,20,0,0,0,114.64,52.36Z"/></g></g></svg>