<?xml version="1.0" encoding="utf-8"?>
<!-- Generator: Adobe Illustrator 16.0.4, SVG Export Plug-In . SVG Version: 6.00 Build 0)  -->
<!DOCTYPE svg PUBLIC "-//W3C//DTD SVG 1.1//EN" "http://www.w3.org/Graphics/SVG/1.1/DTD/svg11.dtd">
<svg version="1.1" id="Layer_1" xmlns="http://www.w3.org/2000/svg" xmlns:xlink="http://www.w3.org/1999/xlink" x="0px" y="0px"
	 width="108.703px" height="75.546px" viewBox="0 0 108.703 75.546" enable-background="new 0 0 108.703 75.546"
	 xml:space="preserve">
<g>
	<g>
		<g>
			<path fill="#E20613" d="M26.799,7.14h3.505v8.104h0.082l5.448-8.104h4.024l-6.488,9.006l7.009,10.102h-4.244l-5.749-8.979h-0.082
				v8.979h-3.505V7.14z"/>
			<path fill="#E20613" d="M45.852,7.14v12.374c0,3.175,0.958,4.216,3.011,4.216c1.999,0,2.984-1.041,2.984-4.216V7.14h3.503v12.374
				c0,5.037-2.901,7.008-6.487,7.008c-3.614,0-6.516-1.971-6.516-7.008V7.14H45.852z"/>
			<path fill="#E20613" d="M59.21,7.14h4.161l6.352,15.002h0.055V7.14h3.175v19.108h-4.188l-6.322-14.892h-0.054v14.892h-3.176
				L59.21,7.14L59.21,7.14z"/>
			<path fill="#E20613" d="M76.729,22.553c0.685,0.438,2.19,1.177,4.052,1.177c1.532,0,2.901-0.848,2.901-2.765
				c0-1.369-0.794-1.971-2.491-2.902l-1.779-0.985c-1.889-1.041-3.121-2.547-3.121-5.01c0-3.423,2.819-5.202,6.022-5.202
				c2.026,0,3.449,0.52,3.997,0.684l-0.164,2.93c-0.85-0.329-1.972-0.822-3.587-0.822c-1.752,0-2.655,0.931-2.655,2.245
				c0,1.423,0.958,1.97,2.026,2.573l2.053,1.149c2.245,1.259,3.312,2.464,3.312,5.147c0,3.887-2.766,5.75-6.406,5.75
				c-1.916,0-3.395-0.274-4.353-0.848L76.729,22.553z"/>
			<path fill="#E20613" d="M93.482,9.932h-4.271V7.14h12.017v2.792h-4.241v16.316h-3.505V9.932z"/>
			<path fill="#E20613" d="M12.401,31.789v12.375c0,3.175,0.958,4.216,3.012,4.216c1.999,0,2.984-1.041,2.984-4.216V31.789h3.504
				v12.375c0,5.037-2.901,7.008-6.488,7.008c-3.614,0-6.515-1.971-6.515-7.008V31.789H12.401z"/>
			<path fill="#E20613" d="M25.814,31.789h3.505v19.108h-3.505V31.789z"/>
			<path fill="#E20613" d="M36.216,34.581h-4.271v-2.792h12.019v2.792H39.72v16.316h-3.504V34.581z"/>
			<path fill="#E20613" d="M46.399,31.789h3.504v16.316H56.2v2.792h-9.801V31.789z"/>
			<path fill="#E20613" d="M58.717,31.789h10.047v2.792h-6.543v5.092h6.187v2.792h-6.187v5.64h6.816v2.792h-10.32V31.789z"/>
			<path fill="#E20613" d="M72.404,31.789h10.047v2.792h-6.543v5.092h6.186v2.792h-6.186v5.64h6.816v2.792h-10.32V31.789z"/>
			<path fill="#E20613" d="M86.064,31.789h4.16l6.352,15.002h0.054V31.789h3.177v19.108h-4.188l-6.323-14.892h-0.056v14.892h-3.175
				V31.789z"/>
			<path fill="#E20613" d="M66.218,71.987h3.285v3.559h-3.285V71.987z"/>
			<g>
				<g>
					<path fill="#100C08" d="M0,71.987h62.658v3.559H0V71.987z"/>
				</g>
			</g>
			<path fill="#E20613" d="M73.041,56.438h4.161l6.351,15.001h0.056V56.438h3.176v19.108h-4.188l-6.323-14.893h-0.055v14.893h-3.176
				L73.041,56.438L73.041,56.438z"/>
			<path fill="#E20613" d="M90.643,56.438h3.503v16.316h6.297v2.792h-9.8V56.438z"/>
			<g>
				<g>
					<path fill="#100C08" d="M7.097,0h101.606v3.56H7.097V0z"/>
				</g>
			</g>
			<rect y="0" fill="#E20613" width="3.559" height="68.429"/>
		</g>
	</g>
	<path fill="#100C08" d="M105.144,75.546V7.112h3.56v68.434H105.144z"/>
</g>
</svg>
