<?xml version="1.0" encoding="utf-8"?>
<!-- Generator: Adobe Illustrator 19.2.1, SVG Export Plug-In . SVG Version: 6.00 Build 0)  -->
<svg version="1.1" id="Layer_1" xmlns="http://www.w3.org/2000/svg" xmlns:xlink="http://www.w3.org/1999/xlink" x="0px" y="0px"
	 width="193.4px" height="75.4px" viewBox="0 0 193.4 75.4" style="enable-background:new 0 0 193.4 75.4;" xml:space="preserve">
<style type="text/css">
	.st0{fill:#231F20;}
</style>
<g>
	<path class="st0" d="M103.1,19.5c-0.9-1.4-4.8-7.3-5.6-8.3h-3.8v8.3c0,1.3,0,1.3-1.5,1.3s-1.5,0-1.5-1.3v-18c0-1.3,0-1.3,1.5-1.3
		s1.5,0,1.5,1.3v7.2h3.7c0.5-0.7,3.9-6.2,4.6-7.2c0.9-1.3,0.9-1.3,2.5-1.3c1.6,0,1.7,0.2,1,1.4c-0.7,1.1-4.7,7.1-5.4,8.3
		c0.4,0.7,5.5,8.3,6.4,9.7c0.7,1.1,0.6,1.3-0.9,1.3C104,20.8,103.9,20.8,103.1,19.5z"/>
	<path class="st0" d="M112.4,10.6V1.5c0-1.3,0-1.3,1.5-1.3c1.5,0,1.5,0,1.5,1.3v9.1c0,6.2,0.4,8,4.4,8c4.1,0,4.3-1.8,4.4-8V1.5
		c0-1.3,0-1.3,1.5-1.3c1.5,0,1.5,0,1.5,1.3v9.1c0,8.2-1.5,10.5-7.5,10.5S112.4,18.8,112.4,10.6z"/>
	<path class="st0" d="M152.7,19.5c0,1.3,0,1.3-1.5,1.3c-1.6,0-1.6,0-2.6-1.4c-1-1.4-8.7-11.8-11-15v15.1c0,1.3,0,1.3-1.5,1.3
		s-1.5,0-1.5-1.3v-18c0-1.3,0-1.3,1.5-1.3c1.7,0,1.7,0,2.8,1.6c1,1.4,8.8,12,10.9,14.8V1.5c0-1.3,0-1.3,1.5-1.3c1.5,0,1.5,0,1.5,1.3
		V19.5z"/>
	<path class="st0" d="M160.6,20.5c-1.3-0.3-1.3-0.4-1-1.6c0.3-1.2,0.4-1.2,1.7-0.9c1.4,0.4,3.1,0.7,5.1,0.7c2.5,0,3.3-1.2,3.3-3.2
		c0-2.6-0.4-3.2-4.6-4.2c-4-0.9-5.5-2.2-5.5-5.8c0-3.8,1.5-5.6,6.6-5.6c1.4,0,3.1,0.1,5,0.6c1.4,0.3,1.5,0.4,1.2,1.5
		c-0.3,1.2-0.4,1.2-1.8,0.9c-1.5-0.4-3-0.6-4.7-0.6c-2.5,0-3.2,1-3.2,3c0,2.3,0.6,2.9,3.6,3.6c4.7,1.1,6.4,2.2,6.5,6.4
		c0,3.8-1.5,5.8-6.6,5.8C164.5,21.1,162.3,20.9,160.6,20.5z"/>
	<path class="st0" d="M191.4,2.7h-4.5v16.8c0,1.3,0,1.3-1.5,1.3c-1.5,0-1.5,0-1.5-1.3V2.7h-4.5c-1.7,0-1.7,0-1.7-1.3s0-1.3,1.7-1.3
		h12.1c1.7,0,1.7,0,1.7,1.3S193,2.7,191.4,2.7z"/>
</g>
<g>
	<path class="st0" d="M32.8,48.1h-5.6c-1.5,0-1.5,0-1.5-1.3v-18c0-1.3,0-1.3,1.5-1.3h5.6c5.9,0,8,2.1,8,10.4
		C40.8,45.9,38.8,48.1,32.8,48.1z M28.7,29.9v15.6h4.1c4.1,0,4.8-1.6,4.8-7.8c0-6.2-0.8-7.8-4.8-7.8H28.7z"/>
	<path class="st0" d="M51.1,46.7c0,1.3,0,1.3-1.5,1.3S48,48,48,46.7v-18c0-1.3,0-1.3,1.5-1.3s1.5,0,1.5,1.3V46.7z"/>
	<path class="st0" d="M69.8,27.4c1.7,0,1.7,0,1.7,1.3s0,1.3-1.7,1.3h-8.3v6.4h7.5c1.7,0,1.7,0,1.7,1.2c0,1.1,0,1.2-1.7,1.2h-7.5v6.9
		h8.6c1.7,0,1.7,0,1.7,1.3s0,1.3-1.7,1.3H60c-1.5,0-1.5,0-1.5-1.3v-18c0-1.3,0-1.3,1.5-1.3H69.8z"/>
	<path class="st0" d="M88.5,27.4c1.5,0,1.5,0,1.5,1.3c0,0.7,0,14.7,0,15.5c0,2.4,0,2.6-1,6.1c-0.3,1.1-0.4,1.2-1.7,0.7
		c-1.4-0.4-1.4-0.5-1.2-1.6c0.8-3,0.9-3.2,0.9-5.1c0-1.5,0-15.7,0-15.7C86.9,27.4,86.9,27.4,88.5,27.4z"/>
	<path class="st0" d="M108.7,27.4c1.7,0,1.7,0,1.7,1.3s0,1.3-1.7,1.3h-8.3v6.4h7.5c1.7,0,1.7,0,1.7,1.2c0,1.1,0,1.2-1.7,1.2h-7.5
		v6.9h8.6c1.7,0,1.7,0,1.7,1.3s0,1.3-1.7,1.3H99c-1.5,0-1.5,0-1.5-1.3v-18c0-1.3,0-1.3,1.5-1.3H108.7z"/>
	<path class="st0" d="M141.2,46.7c0,1.3,0,1.3-1.5,1.3s-1.5,0-1.5-1.3v-8.3h-9.2v8.3c0,1.3,0,1.3-1.5,1.3s-1.5,0-1.5-1.3v-18
		c0-1.3,0-1.3,1.5-1.3s1.5,0,1.5,1.3v7.2h9.2v-7.2c0-1.3,0-1.3,1.5-1.3s1.5,0,1.5,1.3V46.7z"/>
	<path class="st0" d="M148.3,37.8v-9.1c0-1.3,0-1.3,1.5-1.3c1.5,0,1.5,0,1.5,1.3v9.1c0,6.2,0.4,8,4.4,8c4.1,0,4.3-1.8,4.4-8v-9.1
		c0-1.3,0-1.3,1.5-1.3c1.5,0,1.5,0,1.5,1.3v9.1c0,8.2-1.5,10.5-7.5,10.5S148.3,46,148.3,37.8z"/>
	<path class="st0" d="M173.5,46.7c0,1.3,0,1.3-1.5,1.3s-1.5,0-1.5-1.3v-18c0-1.3,0-1.3,1.5-1.3s1.5,0,1.5,1.3V46.7z"/>
	<path class="st0" d="M181.3,47.7c-1.3-0.3-1.3-0.4-1-1.6c0.3-1.2,0.4-1.2,1.7-0.9c1.4,0.4,3.1,0.7,5.1,0.7c2.5,0,3.3-1.2,3.3-3.2
		c0-2.6-0.4-3.2-4.6-4.2c-4-0.9-5.5-2.2-5.5-5.8c0-3.8,1.5-5.6,6.6-5.6c1.4,0,3.1,0.1,5,0.6c1.4,0.3,1.5,0.4,1.2,1.5
		c-0.3,1.2-0.4,1.2-1.8,0.9c-1.5-0.4-3-0.6-4.7-0.6c-2.5,0-3.2,1-3.2,3c0,2.3,0.6,2.9,3.6,3.6c4.7,1.1,6.4,2.2,6.5,6.4
		c0,3.8-1.5,5.8-6.6,5.8C185.3,48.4,183,48.1,181.3,47.7z"/>
</g>
<g>
	<path class="st0" d="M11.9,73.9c0,1.3,0,1.3-1.5,1.3s-1.5,0-1.5-1.3v-18c0-1.3,0-1.3,1.5-1.3s1.5,0,1.5,1.3V73.9z"/>
	<path class="st0" d="M37.6,73.9c0,1.3,0,1.3-1.5,1.3c-1.6,0-1.6,0-2.6-1.4c-1-1.4-8.7-11.8-11-15v15.1c0,1.3,0,1.3-1.5,1.3
		s-1.5,0-1.5-1.3v-18c0-1.3,0-1.3,1.5-1.3c1.7,0,1.7,0,2.8,1.6c1,1.4,8.8,12,10.9,14.8V55.9c0-1.3,0-1.3,1.5-1.3
		c1.5,0,1.5,0,1.5,1.3V73.9z"/>
	<path class="st0" d="M45.5,74.9c-1.3-0.3-1.3-0.4-1-1.6c0.3-1.2,0.4-1.2,1.7-0.9c1.4,0.4,3.1,0.7,5.1,0.7c2.5,0,3.3-1.2,3.3-3.2
		c0-2.6-0.4-3.2-4.6-4.2c-4-0.9-5.5-2.2-5.5-5.8c0-3.8,1.5-5.6,6.6-5.6c1.4,0,3.1,0.1,5,0.6c1.4,0.3,1.5,0.4,1.2,1.5
		c-0.3,1.2-0.4,1.2-1.8,0.9c-1.5-0.4-3-0.6-4.7-0.6c-2.5,0-3.2,1-3.2,3c0,2.3,0.6,2.9,3.6,3.6c4.7,1.1,6.4,2.2,6.5,6.4
		c0,3.8-1.5,5.8-6.6,5.8C49.4,75.6,47.2,75.3,45.5,74.9z"/>
	<path class="st0" d="M67.3,67.5v6.4c0,1.3,0,1.3-1.5,1.3s-1.5,0-1.5-1.3v-18c0-1.3,0-1.3,1.5-1.3h6.4c5.1,0,6.8,1.5,6.8,6.5
		c0,4.9-1.7,6.4-6.8,6.5H67.3z M72,56.9h-4.7v8.4H72c2.9,0,3.9-0.7,3.9-4.2C75.9,57.6,75,56.9,72,56.9z"/>
	<path class="st0" d="M88.6,73.9c0,1.3,0,1.3-1.5,1.3s-1.5,0-1.5-1.3v-18c0-1.3,0-1.3,1.5-1.3s1.5,0,1.5,1.3V73.9z"/>
	<path class="st0" d="M108.1,73.9c-0.6-0.9-3.3-5.4-4.2-7h-4.9v7c0,1.3,0,1.3-1.5,1.3s-1.5,0-1.5-1.3v-18c0-1.3,0-1.3,1.5-1.3h6.5
		c4.8,0,6.8,1.6,6.8,6.2c0,3.5-1.1,5.3-3.8,5.8c0.5,0.9,4,6.6,4.5,7.4c0.7,1.1,0.6,1.3-0.9,1.3C108.9,75.3,108.9,75.2,108.1,73.9z
		 M99.1,64.6h5.2c2.5,0,3.4-0.9,3.4-3.9c0-3.1-1-3.9-3.9-3.9h-4.7V64.6z"/>
	<path class="st0" d="M129.3,54.6c1.7,0,1.7,0,1.7,1.3s0,1.3-1.7,1.3h-8.3v6.4h7.5c1.7,0,1.7,0,1.7,1.2c0,1.1,0,1.2-1.7,1.2h-7.5
		v6.9h8.6c1.7,0,1.7,0,1.7,1.3s0,1.3-1.7,1.3h-10.2c-1.5,0-1.5,0-1.5-1.3v-18c0-1.3,0-1.3,1.5-1.3H129.3z"/>
	<path class="st0" d="M148.8,54.6c1.7,0,1.7,0,1.7,1.3s0,1.3-1.7,1.3h-8.3v6.4h7.5c1.7,0,1.7,0,1.7,1.2c0,1.1,0,1.2-1.7,1.2h-7.5
		v6.9h8.6c1.7,0,1.7,0,1.7,1.3s0,1.3-1.7,1.3H139c-1.5,0-1.5,0-1.5-1.3v-18c0-1.3,0-1.3,1.5-1.3H148.8z"/>
	<path class="st0" d="M169.1,73.9c-0.6-0.9-3.3-5.4-4.2-7H160v7c0,1.3,0,1.3-1.5,1.3s-1.5,0-1.5-1.3v-18c0-1.3,0-1.3,1.5-1.3h6.5
		c4.8,0,6.8,1.6,6.8,6.2c0,3.5-1.1,5.3-3.8,5.8c0.5,0.9,4,6.6,4.5,7.4c0.7,1.1,0.6,1.3-0.9,1.3C169.9,75.3,169.8,75.2,169.1,73.9z
		 M160,64.6h5.2c2.5,0,3.4-0.9,3.4-3.9c0-3.1-1-3.9-3.9-3.9H160V64.6z"/>
	<path class="st0" d="M191.1,57.1h-4.5v16.8c0,1.3,0,1.3-1.5,1.3c-1.5,0-1.5,0-1.5-1.3V57.1H179c-1.7,0-1.7,0-1.7-1.3s0-1.3,1.7-1.3
		h12.1c1.7,0,1.7,0,1.7,1.3S192.8,57.1,191.1,57.1z"/>
</g>
</svg>
