<?xml version="1.0" encoding="utf-8"?>
<!-- Generator: Adobe Illustrator 16.0.4, SVG Export Plug-In . SVG Version: 6.00 Build 0)  -->
<!DOCTYPE svg PUBLIC "-//W3C//DTD SVG 1.1//EN" "http://www.w3.org/Graphics/SVG/1.1/DTD/svg11.dtd">
<svg version="1.1" id="Layer_1" xmlns="http://www.w3.org/2000/svg" xmlns:xlink="http://www.w3.org/1999/xlink" x="0px" y="0px"
	 width="193.443px" height="75.415px" viewBox="0 0 193.443 75.415" enable-background="new 0 0 193.443 75.415"
	 xml:space="preserve">
<g>
	<path d="M103.435,19.816c-0.946-1.39-4.82-7.275-5.56-8.339H94.12v8.339c0,1.301-0.03,1.331-1.538,1.331s-1.538-0.03-1.538-1.331
		V1.777c0-1.301,0.03-1.331,1.538-1.331s1.538,0.03,1.538,1.331v7.156h3.726c0.474-0.71,3.934-6.151,4.584-7.156
		c0.857-1.331,0.857-1.331,2.514-1.331c1.597,0,1.715,0.237,0.976,1.36c-0.71,1.094-4.673,7.127-5.441,8.339
		c0.443,0.68,5.471,8.31,6.358,9.67c0.739,1.124,0.621,1.331-0.858,1.331C104.352,21.146,104.263,21.058,103.435,19.816z"/>
	<path d="M112.752,10.915V1.777c0-1.301,0.029-1.331,1.537-1.331c1.509,0,1.538,0.03,1.538,1.331v9.137
		c0.029,6.21,0.414,7.984,4.376,7.984c4.052,0,4.348-1.774,4.377-7.984V1.777c0-1.301,0.029-1.331,1.538-1.331
		c1.508,0,1.537,0.03,1.537,1.331v9.137c0,8.221-1.479,10.528-7.452,10.528C114.23,21.442,112.752,19.136,112.752,10.915z"/>
	<path d="M153.06,19.816c0,1.301-0.029,1.331-1.537,1.331c-1.567,0-1.598,0-2.632-1.449c-1.035-1.39-8.724-11.829-11.03-14.993
		v15.111c0,1.301-0.03,1.331-1.538,1.331s-1.538-0.03-1.538-1.331V1.777c0-1.301,0.03-1.331,1.538-1.331
		c1.656,0,1.656,0.03,2.779,1.567c1.006,1.39,8.812,12.006,10.883,14.845V1.777c0-1.301,0.029-1.331,1.538-1.331
		c1.508,0,1.537,0.03,1.537,1.331V19.816z"/>
	<path d="M160.987,20.821c-1.271-0.325-1.331-0.414-1.035-1.597c0.325-1.212,0.414-1.183,1.715-0.857
		c1.36,0.355,3.105,0.651,5.087,0.651c2.514,0,3.282-1.213,3.253-3.224c0-2.602-0.444-3.223-4.584-4.169
		c-3.963-0.887-5.471-2.188-5.471-5.826c-0.029-3.755,1.538-5.648,6.595-5.648c1.419,0,3.075,0.147,4.997,0.591
		c1.42,0.296,1.479,0.355,1.184,1.538c-0.296,1.183-0.414,1.183-1.774,0.857c-1.538-0.354-2.987-0.562-4.702-0.562
		c-2.454,0-3.224,1.005-3.224,3.046c-0.029,2.336,0.592,2.927,3.578,3.607c4.731,1.065,6.447,2.159,6.477,6.417
		c0,3.785-1.508,5.796-6.564,5.796C164.891,21.442,162.673,21.206,160.987,20.821z"/>
	<path d="M191.713,2.99h-4.524v16.826c0,1.301-0.029,1.331-1.537,1.331c-1.509,0-1.538-0.03-1.538-1.331V2.99h-4.495
		c-1.686,0-1.715-0.03-1.715-1.272c0-1.242,0.029-1.271,1.715-1.271h12.095c1.656,0,1.716,0.03,1.716,1.271
		C193.429,2.96,193.369,2.99,191.713,2.99z"/>
</g>
<g>
	<path d="M7.141,48.354H1.552c-1.508,0-1.538-0.03-1.538-1.331V28.985c0-1.301,0.03-1.331,1.538-1.331h5.589
		c5.944,0,7.984,2.129,7.984,10.35C15.125,46.226,13.114,48.354,7.141,48.354z M3.09,30.198v15.614h4.051
		c4.052,0,4.761-1.597,4.761-7.807c0.03-6.21-0.769-7.807-4.761-7.807H3.09z"/>
	<path d="M25.418,47.023c0,1.301-0.03,1.331-1.538,1.331s-1.538-0.03-1.538-1.331V28.985c0-1.301,0.03-1.331,1.538-1.331
		s1.538,0.03,1.538,1.331V47.023z"/>
	<path d="M44.167,27.654c1.686,0,1.715,0.03,1.715,1.271c0,1.242-0.029,1.272-1.715,1.272h-8.25v6.358h7.54
		c1.686,0,1.716,0.029,1.716,1.153c0,1.124-0.03,1.153-1.716,1.153h-7.54v6.95h8.635c1.715,0,1.744,0.029,1.744,1.271
		c0,1.241-0.029,1.271-1.744,1.271H34.379c-1.508,0-1.538-0.03-1.538-1.331V28.985c0-1.301,0.03-1.331,1.538-1.331H44.167z"/>
	<path d="M68.388,48.354h-5.589c-1.508,0-1.538-0.03-1.538-1.331V28.985c0-1.301,0.03-1.331,1.538-1.331h5.589
		c5.944,0,7.984,2.129,7.984,10.35C76.372,46.226,74.361,48.354,68.388,48.354z M64.337,30.198v15.614h4.051
		c4.052,0,4.761-1.597,4.761-7.807c0.03-6.21-0.769-7.807-4.761-7.807H64.337z"/>
	<path d="M94.916,27.654c1.686,0,1.715,0.03,1.715,1.271c0,1.242-0.029,1.272-1.715,1.272h-8.25v6.358h7.54
		c1.686,0,1.716,0.029,1.716,1.153c0,1.124-0.03,1.153-1.716,1.153h-7.54v6.95h8.635c1.715,0,1.744,0.029,1.744,1.271
		c0,1.241-0.029,1.271-1.744,1.271H85.128c-1.508,0-1.538-0.03-1.538-1.331V28.985c0-1.301,0.03-1.331,1.538-1.331H94.916z"/>
	<path d="M124.607,48.354c0,0-12.302,0-12.598,0c-1.479,0-1.537-0.03-1.537-1.212c0-0.857,0.089-0.947,0.562-1.598
		c2.188-2.898,11.533-15.347,11.533-15.347h-9.641c-1.686,0-1.715-0.03-1.715-1.272c0-1.242,0.029-1.271,1.715-1.271
		c0,0,11.799,0,11.977,0c1.508,0,1.538,0.03,1.538,1.212c0,0.917-0.089,0.946-0.562,1.597c-1.951,2.602-11.532,15.348-11.532,15.348
		h10.261c1.656,0,1.716,0.029,1.716,1.271C126.323,48.324,126.264,48.354,124.607,48.354z"/>
	<path d="M135.906,43.002c0,0-0.946,3.607-1.035,4.021c-0.325,1.301-0.354,1.331-1.863,1.331c-1.479,0-1.537-0.06-1.242-1.331
		c0.385-1.597,4.317-16.826,4.644-18.068c0.295-1.271,0.354-1.301,2.218-1.301c0.207,0,2.425,0,2.661,0
		c1.833,0,1.893,0.03,2.188,1.301c0.325,1.271,4.317,16.619,4.672,18.068c0.296,1.242,0.207,1.331-1.271,1.331
		c-1.538,0-1.538-0.03-1.863-1.331c-0.088-0.385-1.064-4.021-1.064-4.021H135.906z M143.506,40.695l-2.779-11h-1.567l-2.78,11
		H143.506z"/>
	<path d="M158.234,43.002c0,0-0.946,3.607-1.035,4.021c-0.325,1.301-0.354,1.331-1.863,1.331c-1.479,0-1.537-0.06-1.242-1.331
		c0.385-1.597,4.317-16.826,4.644-18.068c0.295-1.271,0.354-1.301,2.218-1.301c0.207,0,2.425,0,2.661,0
		c1.833,0,1.893,0.03,2.188,1.301c0.325,1.271,4.317,16.619,4.672,18.068c0.296,1.242,0.207,1.331-1.271,1.331
		c-1.538,0-1.538-0.03-1.863-1.331c-0.088-0.385-1.064-4.021-1.064-4.021H158.234z M165.834,40.695l-2.779-11h-1.567l-2.78,11
		H165.834z"/>
	<path d="M189.552,47.023c-0.946-1.39-4.82-7.274-5.56-8.339h-3.755v8.339c0,1.301-0.03,1.331-1.538,1.331s-1.538-0.03-1.538-1.331
		V28.985c0-1.301,0.03-1.331,1.538-1.331s1.538,0.03,1.538,1.331v7.156h3.726c0.474-0.71,3.934-6.151,4.584-7.156
		c0.857-1.331,0.857-1.331,2.514-1.331c1.597,0,1.715,0.237,0.976,1.36c-0.71,1.094-4.673,7.127-5.441,8.339
		c0.443,0.68,5.471,8.31,6.358,9.669c0.739,1.124,0.621,1.331-0.858,1.331C190.469,48.354,190.38,48.266,189.552,47.023z"/>
</g>
<g>
	<path d="M14.859,74.262c-0.296,1.271-0.325,1.301-2.188,1.301c-0.236,0-2.158,0-2.396,0c-1.833,0-1.893-0.029-2.188-1.301
		C7.762,72.99,3.8,57.731,3.415,56.193c-0.296-1.242-0.207-1.33,1.301-1.33c1.509,0,1.509,0,1.834,1.33
		c0.385,1.538,3.933,15.91,4.288,17.329h1.271c0.325-1.36,4.021-16.205,4.288-17.329c0.325-1.33,0.325-1.33,1.833-1.33
		c1.538,0,1.597,0.088,1.301,1.33C19.177,57.643,15.185,73.02,14.859,74.262z"/>
	<path d="M37.542,54.863c1.686,0,1.715,0.029,1.715,1.271s-0.029,1.271-1.715,1.271h-8.25v6.357h7.54
		c1.686,0,1.716,0.029,1.716,1.153s-0.03,1.153-1.716,1.153h-7.54v6.949h8.635c1.715,0,1.744,0.029,1.744,1.271
		s-0.029,1.271-1.744,1.271H27.754c-1.508,0-1.538-0.029-1.538-1.33V56.193c0-1.301,0.03-1.33,1.538-1.33H37.542z"/>
	<path d="M57.83,74.232c-0.562-0.946-3.253-5.412-4.17-6.979h-4.908v6.979c0,1.301-0.03,1.33-1.538,1.33s-1.538-0.029-1.538-1.33
		V56.193c0-1.301,0.03-1.33,1.538-1.33h6.506c4.85,0,6.771,1.566,6.771,6.209c0,3.549-1.094,5.265-3.844,5.797
		c0.503,0.887,3.992,6.594,4.495,7.363c0.709,1.094,0.62,1.33-0.888,1.33C58.629,75.562,58.599,75.504,57.83,74.232z M48.752,64.947
		h5.175c2.483-0.03,3.371-0.888,3.371-3.875c0-3.074-0.976-3.902-3.874-3.902h-4.672V64.947z"/>
	<path d="M71.376,70.211c0,0-0.946,3.607-1.035,4.021c-0.325,1.301-0.354,1.33-1.863,1.33c-1.479,0-1.537-0.059-1.242-1.33
		c0.385-1.598,4.317-16.826,4.644-18.068c0.295-1.271,0.354-1.301,2.218-1.301c0.207,0,2.425,0,2.661,0
		c1.833,0,1.893,0.029,2.188,1.301c0.325,1.271,4.317,16.619,4.672,18.068c0.296,1.242,0.207,1.33-1.271,1.33
		c-1.538,0-1.538-0.029-1.863-1.33c-0.088-0.385-1.064-4.021-1.064-4.021H71.376z M78.976,67.904l-2.779-11.001h-1.567l-2.78,11.001
		H78.976z"/>
	<path d="M108.578,74.232c0,1.301-0.029,1.33-1.537,1.33c-1.567,0-1.598,0-2.632-1.449c-1.035-1.389-8.724-11.828-11.03-14.992
		v15.111c0,1.301-0.03,1.33-1.538,1.33s-1.538-0.029-1.538-1.33V56.193c0-1.301,0.03-1.33,1.538-1.33
		c1.656,0,1.656,0.029,2.779,1.566c1.006,1.391,8.812,12.006,10.883,14.846V56.193c0-1.301,0.029-1.33,1.538-1.33
		c1.508,0,1.537,0.029,1.537,1.33V74.232z"/>
	<path d="M123.159,75.562h-5.589c-1.508,0-1.538-0.029-1.538-1.33V56.193c0-1.301,0.03-1.33,1.538-1.33h5.589
		c5.944,0,7.984,2.129,7.984,10.35S129.133,75.562,123.159,75.562z M119.108,57.406V73.02h4.051c4.052,0,4.761-1.597,4.761-7.807
		c0.03-6.21-0.769-7.807-4.761-7.807H119.108z"/>
	<path d="M149.687,54.863c1.686,0,1.715,0.029,1.715,1.271s-0.029,1.271-1.715,1.271h-8.25v6.357h7.54
		c1.686,0,1.716,0.029,1.716,1.153s-0.03,1.153-1.716,1.153h-7.54v6.949h8.635c1.715,0,1.744,0.029,1.744,1.271
		s-0.029,1.271-1.744,1.271h-10.173c-1.508,0-1.538-0.029-1.538-1.33V56.193c0-1.301,0.03-1.33,1.538-1.33H149.687z"/>
	<path d="M169.975,74.232c-0.562-0.946-3.253-5.412-4.17-6.979h-4.908v6.979c0,1.301-0.03,1.33-1.538,1.33s-1.538-0.029-1.538-1.33
		V56.193c0-1.301,0.03-1.33,1.538-1.33h6.506c4.85,0,6.771,1.566,6.771,6.209c0,3.549-1.094,5.265-3.844,5.797
		c0.503,0.887,3.992,6.594,4.495,7.363c0.709,1.094,0.62,1.33-0.888,1.33C170.773,75.562,170.743,75.504,169.975,74.232z
		 M160.896,64.947h5.175c2.483-0.03,3.371-0.888,3.371-3.875c0-3.074-0.976-3.902-3.874-3.902h-4.672V64.947z"/>
	<path d="M191.711,57.406h-4.524v16.826c0,1.301-0.029,1.33-1.537,1.33c-1.509,0-1.538-0.029-1.538-1.33V57.406h-4.495
		c-1.686,0-1.715-0.029-1.715-1.271s0.029-1.271,1.715-1.271h12.095c1.656,0,1.716,0.029,1.716,1.271S193.367,57.406,191.711,57.406
		z"/>
</g>
</svg>
