<svg id="Layer_1" data-name="Layer 1" xmlns="http://www.w3.org/2000/svg" width="143.4mm" height="143.5mm" viewBox="0 0 406.6 406.7"><title>pdf-kadobon-price</title><path d="M129,347.5l-25.3-5.1-6.8,6.9,15.2,15.1c2.3,2.4,2.3,2.5-.4,5.2s-2.9,2.8-5.2.4L73.6,337.2c-2.3-2.4-2.3-2.5.4-5.2s2.9-2.8,5.2-.4l13,13,6.8-6.8c-.4-2.1-4-18.3-4.7-21.3s-.8-4,2.2-7,3.6-2.7,4.3.7,4.4,21.5,5.2,25.1l29.2,6c3.4.7,3.5,1.3.8,4S132.8,348.2,129,347.5Z" style="fill:#fff"/><path d="M144.3,317.6l5.4,9.2c1.8,2.9,1.8,3-.9,5.8s-3,2.7-4.7-.2-22.8-38.5-24.5-41.3-1.7-3,1.7-6.4l4.9-4.9c3.3-3.3,3.4-3.3,6.3-1.6l41.4,24.4c2.8,1.7,2.8,2,.1,4.7s-2.9,2.8-5.8,1l-9.3-5.4Zm9.6-18.1-25.1-14.9-2.8,2.8,14.9,25.1Z" style="fill:#fff"/><path d="M198.7,282.6l-10.1,10.2c-2.8,2.7-2.9,2.7-5.2.3l-32.9-32.8c-2.3-2.4-2.3-2.5.4-5.2l10.2-10.2c10.8-10.8,18.4-10.6,33.3,4.3S209.6,271.7,198.7,282.6Zm-40.4-25.7,28.4,28.4,7.4-7.3c7.4-7.4,5.8-11.6-5.5-22.9s-15.6-12.8-22.9-5.6Z" style="fill:#fff"/><path d="M238.4,244c-10.9,10.9-18.8,10.2-33.9-4.8s-15.8-23-4.8-33.9,18.8-10.2,33.8,4.9S249.2,233.2,238.4,244Zm-34.1-34.1c-7.4,7.5-5.3,12,6.1,23.4s15.9,13.5,23.4,6.1,5.3-11.9-6.2-23.4S211.8,202.5,204.3,209.9Z" style="fill:#fff"/><path d="M279,202.4l-13.4,13.3c-2.7,2.7-2.8,2.7-5.2.4l-32.8-32.9c-2.4-2.3-2.4-2.4.4-5.2l12.2-12.2c9-9,14.9-9,21.4-2.4,4.8,4.8,6.2,9,2.7,14.7,6.4-4.6,10.9-3.3,16.5,2.3C287.9,187.5,287.9,193.4,279,202.4Zm-44-23,12,12,9-9c5.2-5.2,4.7-8.3.5-12.5s-7.2-4.8-12.5.5Zm26.3,6.1-10.1,10.1,13,13.1,10.1-10.1c5.3-5.2,4.7-8.4,0-13S266.6,180.2,261.3,185.5Z" style="fill:#fff"/><path d="M314.9,167.5c-11,11-18.9,10.3-33.9-4.8s-15.8-23-4.9-33.9,18.9-10.1,33.9,4.9S325.7,156.7,314.9,167.5Zm-34.1-34c-7.5,7.5-5.4,11.9,6,23.3s16,13.5,23.4,6.1,5.4-11.9-6.1-23.3S288.2,126,280.8,133.5Z" style="fill:#fff"/><path d="M370.1,106.4c2.4,2.3,2.4,2.4-.4,5.2s-2.9,2.9-7.4,2.1L315,106.5,342.5,134c2.3,2.4,2.3,2.5-.4,5.2s-2.9,2.8-5.2.4L304,106.8c-2.3-2.4-2.3-2.5.4-5.2s3.1-3,7.9-2.2l46.8,7.2L331.7,79.1c-2.4-2.3-2.4-2.4.4-5.2s2.8-2.7,5.2-.4Z" style="fill:#fff"/><path d="M188.2,333.2l-7.1-1.4-1.9,1.9,4.3,4.3c.6.7.6.7-.1,1.5s-.8.7-1.5.1l-9.2-9.2c-.7-.7-.7-.7.1-1.5s.8-.8,1.5-.1l3.6,3.6,1.9-1.9c-.1-.6-1.1-5.1-1.3-6s-.2-1.1.6-1.9,1-.8,1.2.2,1.2,6,1.5,7l8.2,1.7c.9.2,1,.4.2,1.1S189.3,333.5,188.2,333.2Z" style="fill:#fff"/><path d="M192.2,317.5l5.9,5.9c.6.7.6.7.2,1.1s-.4.4-1,.4a1.2,1.2,0,0,1-1-.4l-2.3,4.4c-.3.6-.5.7-1.4.7s-.6,0-1-.4l-5.6-5.5c-.6-.7-.6-.7.1-1.4s.7-.7,1.4-.1l5.4,5.5,2.3-4.3-4.5-4.4c-.6-.7-.6-.7.1-1.4S191.5,316.8,192.2,317.5Z" style="fill:#fff"/><path d="M206.6,314.8c.7.7.7.7,0,1.4s-.8.7-1.4.1l-3.8-3.7c-1.1-1.2-1.7-1.6-2.4-1s-.8,2.4-.8,4.2l3.7,3.8c.7.6.7.7,0,1.4s-.8.7-1.4,0l-5.9-5.9c-.7-.6-.7-.7,0-1.4s.7-.7,1.2-.2l1.3,1.3c.2-2.6.5-4.2,1.2-5s2.4-.9,4.3,1Z" style="fill:#fff"/><path d="M212.7,310.3a12.7,12.7,0,0,1-2.8,2.3c-.7.4-.7.4-1.1-.2s-.4-.6.3-1l1.8-1.4c1-.9,1.1-1.4.3-2.2s-1.3-.9-3.2.3-2.6.9-3.8-.3-1.2-2.6.1-3.9a11.8,11.8,0,0,1,2.7-2.2c.7-.4.8-.4,1.2.2s.3.6-.3.9l-1.8,1.4c-1,.9-1.1,1.4-.4,2.2s1.2.8,3-.3,2.8-1,4.1.3S214,308.9,212.7,310.3Z" style="fill:#fff"/><path d="M218.3,304.7a1.6,1.6,0,0,1-1.4.7,1.3,1.3,0,0,1-1.1-.4l-7.6-7.7c-.7-.7-.7-.7,0-1.4s.7-.7,1.4,0l1.4,1.4,1.5-1.5c.8-.8.9-.8,1.4-.3s.5.5-.3,1.3l-1.5,1.5,5.1,5.1,1.3-2.2c.4-.6.4-.6,1-.3s.8.5.4,1.1Z" style="fill:#fff"/><path d="M221.9,287.8l5.9,5.9c.7.6.7.6.2,1.1s-.3.4-.9.4a1.4,1.4,0,0,1-1.1-.4l-2.3,4.3c-.3.6-.5.7-1.3.8a1.3,1.3,0,0,1-1.1-.4l-5.5-5.6c-.7-.6-.7-.7,0-1.4s.7-.7,1.4,0l5.5,5.4,2.2-4.3-4.4-4.4c-.7-.6-.7-.7,0-1.4S221.3,287.1,221.9,287.8Z" style="fill:#fff"/><path d="M221,282.1c-.7-.7-.7-.7,0-1.4s.8-.8,1.4-.1l.6.5c.6.7.6.7-.1,1.4s-.7.8-1.4.1Zm3.3,3.3c-.7-.7-.7-.7.1-1.4s.7-.7,1.4-.1l5.8,5.9c.7.7.7.7,0,1.4s-.7.7-1.4.1Z" style="fill:#fff"/><path d="M236.1,286.8c-.3.5-.5.6-1.3.7a1.3,1.3,0,0,1-1.1-.4l-7.7-7.7c-.6-.6-.6-.7.1-1.4s.7-.7,1.4,0l1.4,1.4,1.5-1.5c.8-.8.9-.8,1.4-.3s.5.5-.3,1.3l-1.5,1.5,5.1,5.1,1.3-2.2c.3-.6.4-.6,1-.2s.8.4.4,1Z" style="fill:#fff"/><path d="M241,280.5c.7.6.7.7-.1,1.4s-.7.7-1.4,0l-9.2-9.2c-.6-.7-.6-.7.1-1.4s.7-.7,1.4,0Z" style="fill:#fff"/><path d="M249,273a30,30,0,0,1-2.7,3.7c-1.6,1.6-3,1.7-6-1.3s-3.2-4.3-.8-6.7,3.3-2.1,4.6-.8,1.1,2.6-1,4.6l-1.4,1.4c2.1,2.1,3.1,2.5,3.9,1.4l1.9-2.9c.5-.8.5-.8,1.1-.4S249.4,272.4,249,273Zm-6.8-.9c1.4-1.4,1.5-2.1.7-2.9s-1.5-.7-2.5.3-1.1,1.9.7,3.7Z" style="fill:#fff"/><path d="M256.6,265.4a30,30,0,0,1-2.7,3.7c-1.6,1.6-3,1.7-6-1.4s-3.2-4.2-.8-6.6,3.3-2.1,4.6-.8,1.1,2.6-.9,4.6l-1.5,1.4c2.1,2.1,3.1,2.5,3.9,1.4l1.9-2.9c.5-.8.5-.8,1.1-.5S257,264.8,256.6,265.4Zm-6.8-.9c1.4-1.4,1.5-2.1.7-2.9s-1.5-.7-2.5.3-1,1.9.7,3.7Z" style="fill:#fff"/><path d="M264.8,256.7c.6.7.6.7-.1,1.4s-.7.7-1.4,0l-3.7-3.7c-1.2-1.1-1.8-1.6-2.4-.9s-.9,2.3-.9,4.2l3.7,3.7c.7.7.7.7,0,1.4s-.7.7-1.4.1l-5.9-5.9c-.7-.7-.7-.7.1-1.4s.7-.7,1.2-.3l1.3,1.3c.2-2.5.4-4.2,1.2-4.9s2.4-.9,4.3,1Z" style="fill:#fff"/><path d="M272.9,249.9c-.5.5-.6.6-1.2.6a1.1,1.1,0,0,1-1-.4l-5.6-5.5c-.6-.7-.6-.7.1-1.4s.7-.8,1.4-.1l5.6,5.7c1.1-1.1,1.3-1.4,1.2-3.4s-.3-2.3-1.8-3.8l-1.8-1.8c-.6-.6-.6-.6.1-1.4s.7-.7,1.4,0l1.7,1.7a5.4,5.4,0,0,1,2,4.6c.2,2.6.1,3.1-1.5,4.7Z" style="fill:#fff"/><path d="M276.3,239.2c-3.1-3.1-3-4.3-.3-7s4-2.8,7.1.3,3,4.4.3,7.1S279.4,242.3,276.3,239.2Zm.7-6c-1.6,1.7-1.6,2.3.8,4.6s2.9,2.4,4.6.7,1.5-2.2-.8-4.5S278.7,231.6,277,233.2Z" style="fill:#fff"/><path d="M285.1,230.5c-3.1-3.1-3.1-4.4-.4-7.1s4-2.7,7.1.4,3,4.3.3,7S288.2,233.6,285.1,230.5Zm.7-6c-1.7,1.6-1.6,2.2.7,4.5s3,2.4,4.6.8,1.6-2.3-.7-4.6S287.4,222.8,285.8,224.5Z" style="fill:#fff"/><path d="M296.9,216.3c-1.1-1.1-1.5-1.3-1.9-.9s-.6,1.9-.5,3.8l3.9,3.9c.7.6.7.6,0,1.4s-.8.7-1.4,0l-5.9-5.9c-.7-.6-.7-.7,0-1.4s.7-.7,1.2-.2l1.3,1.3c0-2.5.2-3.9.9-4.7s1.7-.6,3.6,1.2.8.8.1,1.5S297.5,216.9,296.9,216.3Z" style="fill:#fff"/><path d="M310.4,212.5c-.4.6-.5.7-1.3.7s-.7,0-1.1-.4l-7.7-7.6c-.7-.7-.7-.7,0-1.4s.8-.7,1.4-.1l1.5,1.4,1.5-1.4c.8-.8.8-.8,1.3-.3s.5.5-.3,1.3l-1.5,1.5,5.1,5.1,1.3-2.2c.4-.6.4-.6,1-.3s.8.4.4,1Z" style="fill:#fff"/><path d="M320,201.5c.6.7.6.7-.1,1.4s-.7.7-1.4,0l-3.7-3.7c-1.2-1.1-1.8-1.6-2.4-.9s-.9,2.3-.9,4.2l3.7,3.7c.7.7.7.7,0,1.4s-.7.7-1.4.1l-9.2-9.2c-.7-.7-.7-.7,0-1.4s.8-.8,1.4-.1l4.5,4.4c.2-2.5.4-4.2,1.2-4.9s2.4-.9,4.3,1Z" style="fill:#fff"/><path d="M322.6,187l5.9,5.9c.7.7.7.7.3,1.2a1.5,1.5,0,0,1-1,.4,1.1,1.1,0,0,1-1-.4l-2.3,4.3c-.4.6-.5.7-1.4.8a1.1,1.1,0,0,1-1.1-.5l-5.5-5.5c-.7-.7-.7-.7,0-1.4s.8-.7,1.4,0l5.5,5.4,2.2-4.3-4.4-4.4c-.7-.7-.7-.7,0-1.4S322,186.4,322.6,187Z" style="fill:#fff"/><path d="M321.7,181.3c-.7-.6-.7-.7.1-1.4s.7-.7,1.4,0l.5.5c.6.7.6.7-.1,1.4s-.7.7-1.4.1Zm3.3,3.4c-.6-.7-.6-.7.1-1.4s.7-.8,1.4-.1l5.9,5.9c.6.7.6.7-.1,1.4s-.7.7-1.4,0Z" style="fill:#fff"/><path d="M338.4,184.6a10.8,10.8,0,0,1-2.8,2.3c-.7.4-.7.4-1.1-.2s-.4-.6.3-1a11,11,0,0,0,1.8-1.4c1-.9,1.2-1.5.4-2.3s-1.3-.9-3.3.4-2.6.9-3.8-.3-1.2-2.6.2-3.9a11.2,11.2,0,0,1,2.6-2.2c.7-.4.8-.4,1.2.2s.3.6-.3.9a16.3,16.3,0,0,0-1.8,1.4c-1,.8-1.1,1.4-.3,2.2s1.1.8,2.9-.4,2.8-1,4.1.4S339.7,183.2,338.4,184.6Z" style="fill:#fff"/><text transform="translate(241.5 398.5) rotate(-45)" style="font-size:88.16362762451172px;fill:#e21e26;font-family:Nikaia, Nikaia"><tspan style="letter-spacing:-0.09899805145181421em">€</tspan><tspan x="45.8" y="0" style="letter-spacing:-0.10000603161205086em"> </tspan><tspan x="59.4" y="0" style="letter-spacing:-0.09899805145181421em">XX,-</tspan></text></svg>