<svg id="Layer_1" data-name="Layer 1" xmlns="http://www.w3.org/2000/svg" width="143.4mm" height="143.5mm" viewBox="0 0 406.6 406.7"><title>pdf-kadobon-price</title><path d="M129,347.5l-25.3-5.1-6.8,6.9,15.2,15.1c2.3,2.4,2.3,2.5-.4,5.2s-2.9,2.8-5.2.4L73.6,337.2c-2.3-2.4-2.3-2.5.4-5.2s2.9-2.8,5.2-.4l13,13,6.8-6.8c-.4-2.1-4-18.3-4.7-21.3s-.8-4,2.2-7,3.6-2.7,4.3.7,4.4,21.5,5.2,25.1l29.2,6c3.4.7,3.5,1.3.8,4S132.8,348.2,129,347.5Z" style="fill:#fff"/><path d="M144.3,317.6l5.4,9.2c1.8,2.9,1.8,3-.9,5.8s-3,2.7-4.7-.2-22.8-38.5-24.5-41.3-1.7-3,1.7-6.4l4.9-4.9c3.3-3.3,3.4-3.3,6.3-1.6l41.4,24.4c2.8,1.7,2.8,2,.1,4.7s-2.9,2.8-5.8,1l-9.3-5.4Zm9.6-18.1-25.1-14.9-2.8,2.8,14.9,25.1Z" style="fill:#fff"/><path d="M198.7,282.6l-10.1,10.2c-2.8,2.7-2.9,2.7-5.2.3l-32.9-32.8c-2.3-2.4-2.3-2.5.4-5.2l10.2-10.2c10.8-10.8,18.4-10.6,33.3,4.3S209.6,271.7,198.7,282.6Zm-40.4-25.7,28.4,28.4,7.4-7.3c7.4-7.4,5.8-11.6-5.5-22.9s-15.6-12.8-22.9-5.6Z" style="fill:#fff"/><path d="M238.4,244c-10.9,10.9-18.8,10.2-33.9-4.8s-15.8-23-4.8-33.9,18.8-10.2,33.8,4.9S249.2,233.2,238.4,244Zm-34.1-34.1c-7.4,7.5-5.3,12,6.1,23.4s15.9,13.5,23.4,6.1,5.3-11.9-6.2-23.4S211.8,202.5,204.3,209.9Z" style="fill:#fff"/><path d="M279,202.4l-13.4,13.3c-2.7,2.7-2.8,2.7-5.2.4l-32.8-32.9c-2.4-2.3-2.4-2.4.4-5.2l12.2-12.2c9-9,14.9-9,21.4-2.4,4.8,4.8,6.2,9,2.7,14.7,6.4-4.6,10.9-3.3,16.5,2.3C287.9,187.5,287.9,193.4,279,202.4Zm-44-23,12,12,9-9c5.2-5.2,4.7-8.3.5-12.5s-7.2-4.8-12.5.5Zm26.3,6.1-10.1,10.1,13,13.1,10.1-10.1c5.3-5.2,4.7-8.4,0-13S266.6,180.2,261.3,185.5Z" style="fill:#fff"/><path d="M314.9,167.5c-11,11-18.9,10.3-33.9-4.8s-15.8-23-4.9-33.9,18.9-10.1,33.9,4.9S325.7,156.7,314.9,167.5Zm-34.1-34c-7.5,7.5-5.4,11.9,6,23.3s16,13.5,23.4,6.1,5.4-11.9-6.1-23.3S288.2,126,280.8,133.5Z" style="fill:#fff"/><path d="M370.1,106.4c2.4,2.3,2.4,2.4-.4,5.2s-2.9,2.9-7.4,2.1L315,106.5,342.5,134c2.3,2.4,2.3,2.5-.4,5.2s-2.9,2.8-5.2.4L304,106.8c-2.3-2.4-2.3-2.5.4-5.2s3.1-3,7.9-2.2l46.8,7.2L331.7,79.1c-2.4-2.3-2.4-2.4.4-5.2s2.8-2.7,5.2-.4Z" style="fill:#fff"/><text transform="translate(241.5 398.5) rotate(-45)" style="font-size:88.16362762451172px;fill:#e21e26;font-family:Nikaia, Nikaia"><tspan style="letter-spacing:-0.09899805145181421em">€</tspan><tspan x="45.8" y="0" style="letter-spacing:-0.10000603161205086em"> </tspan><tspan x="59.4" y="0" style="letter-spacing:-0.09899805145181421em">XX,-</tspan></text></svg>