<svg id="Layer_1" data-name="Layer 1" xmlns="http://www.w3.org/2000/svg" xmlns:xlink="http://www.w3.org/1999/xlink" width="402" height="359.5" viewBox="0 0 402 359.5"><defs><radialGradient id="radial-gradient" cx="928.28" cy="1144.55" r="240.26" gradientTransform="translate(-373.1 583) scale(0.84 0.11)" gradientUnits="userSpaceOnUse"><stop offset="0.01" stop-color="#c5c8cb"/><stop offset="0.41" stop-color="#dee0e2"/><stop offset="1" stop-color="#fff"/></radialGradient></defs><title>maintenance-icon</title><path d="M603.6,704.9c0,14.4-90,26.1-201,26.1s-201-11.7-201-26.1,90-26.1,201-26.1S603.6,690.4,603.6,704.9Z" transform="translate(-201.7 -371.5)" style="fill:url(#radial-gradient)"/><path d="M400.8,694.5c-87.7,0-159-71.3-159-159s71.3-159,159-159,159,71.3,159,159S488.4,694.5,400.8,694.5Z" transform="translate(-201.7 -371.5)" style="fill:#fff"/><path d="M400.8,381.5a154,154,0,1,1-108.9,45.1,153,153,0,0,1,108.9-45.1m0-10a164,164,0,1,0,164,164,164,164,0,0,0-164-164Z" transform="translate(-201.7 -371.5)" style="fill:#231f20"/><path d="M439.2,462.2a24.5,24.5,0,1,1-24.5-24.5A24.5,24.5,0,0,1,439.2,462.2Z" transform="translate(-201.7 -371.5)" style="fill:#231f20"/><path d="M501.8,621.3,454.3,579a11.4,11.4,0,0,0-13.3-.8h0a13.3,13.3,0,0,1-14,.1l-30.4-20.8a17.5,17.5,0,0,1-6.8-13.3l.2-7.3a40.9,40.9,0,0,1,4.4-15.9l6.3-11.3a16.9,16.9,0,0,0,0-14.8l-14.8-26.5a14.2,14.2,0,0,0-12.6-6.6L328,466.1a10.6,10.6,0,0,0-9.1,9.3l-1.1,14.7c-.5,10.7-6.7,5.1-10.1,3.3l-3.6,5.1a37.9,37.9,0,0,0,7,5c3.3,1.7,6.1,4.6,6.1,6.4s-2.6,5.8-5.8,8.8-5.5,9.3-5.3,14l2.6,42.7A63.6,63.6,0,0,1,307,592l-9.4,35.6c9.1,9.1,20.9,4.8,20.9,4.8l4.9-12.7L333.9,594a47.3,47.3,0,0,0,3-16.4l-.7-20.7c-.2-4.7,1.6-5.1,3.8-1.1l8.2,14.9a19.9,19.9,0,0,1,.8,15.3s-15.5,36.6-15.5,43.3,20.6,2.8,20.6,2.8h0l20.2-49a21.3,21.3,0,0,0-1-15.4l-4.7-8.8c-2.2-4.1-3.7-8.8-3.3-10.4s1.6-2,2.7-.9l5.3,5.3a24,24,0,0,0,9.1,4.9c3.2.8,8.8,3.8,12.6,6.6l25.4,19c3.7,2.8,3.8,7.4,0,10.3l-40.7,31.1c-3.7,2.8-2.9,5.1,1.8,5l118.1-2.7C504.3,627.1,505.3,624.4,501.8,621.3ZM344.5,500.5l-2.7,1.3c-4.9.6-7.1-1.6-6.9-5a6.1,6.1,0,0,1,6.4-5.8C344.5,491.1,346.7,497.1,344.5,500.5Zm23,33-.2.7c-1.3,4.5-4.7,7.1-7.5,5.7s-2.2-4.8,1.5-7.7l1.9-1.5C366.8,527.7,368.7,529,367.4,533.5Z" transform="translate(-201.7 -371.5)" style="fill:#231f20"/></svg>